{"accessors":[{"bufferView":3,"componentType":5126,"count":16130,"max":[0.7417294383049011,0.12990383803844452,1.756761074066162],"min":[-0.7508105635643005,-0.1987706869840622,-0.017694473266601562],"type":"VEC3"},{"bufferView":3,"byteOffset":193560,"componentType":5126,"count":16130,"max":[0.999998927116394,0.9999897480010986,0.999963641166687],"min":[-0.9999731779098511,-0.9999914169311523,-0.9998984336853027],"type":"VEC3"},{"bufferView":2,"componentType":5126,"count":16130,"max":[0.9995999932289124,0.9995999932289124],"min":[0.00039999998989515007,0.0004000067710876465],"type":"VEC2"},{"bufferView":1,"componentType":5125,"count":81126,"type":"SCALAR"},{"bufferView":5,"componentType":5126,"count":42,"max":[1000.0,998.37744140625,240.05796813964844,0.0,999.9789428710938,1000.0,523.9821166992188,0.0,87.3221435546875,999.9794311523438,1000.0,0.0,860.296875,1029.910888671875,1466.970703125,1.0],"min":[-999.7307739257812,-998.1239624023438,-154.59938049316406,0.0,-999.97509765625,-997.2799072265625,-999.9794311523438,0.0,-421.60186767578125,-999.2198486328125,-998.4266357421875,0.0,-158.34201049804688,-1362.4090576171875,-1564.3214111328125,1.0],"type":"MAT4"},{"bufferView":0,"componentType":5123,"count":16130,"type":"VEC4"},{"bufferView":4,"componentType":5126,"count":16130,"max":[1.0,0.49995890259742737,0.31380224227905273,0.23341801762580872],"min":[0.2647196054458618,0.0,0.0,0.0],"type":"VEC4"},{"bufferView":6,"componentType":5126,"count":517,"max":[19.633333206176758],"min":[0.0],"type":"SCALAR"},{"bufferView":7,"componentType":5126,"count":517,"max":[1.1368683772161603e-13,-9.744319915771484,80.2117919921875],"min":[-2.2737367544323206e-13,-9.744319915771484,80.2117919921875],"type":"VEC3"},{"bufferView":6,"byteOffset":2068,"componentType":5126,"count":590,"max":[19.633333206176758],"min":[0.0],"type":"SCALAR"},{"bufferView":8,"componentType":5126,"count":590,"max":[0.2428353875875473,0.04592989385128021,0.1967109888792038,0.9937726259231567],"min":[-0.03158479928970337,-0.1519300788640976,-0.19768142700195312,0.9576728343963623],"type":"VEC4"},{"bufferView":6,"byteOffset":4428,"componentType":5126,"count":570,"max":[19.633333206176758],"min":[0.0],"type":"SCALAR"},{"bufferView":7,"byteOffset":6204,"componentType":5126,"count":570,"max":[2.2737367544323206e-13,121.68682861328125,-1.3572889656643383e-06],"min":[-1.1368683772161603e-13,121.68682861328125,-1.3572894204116892e-06],"type":"VEC3"},{"bufferView":6,"byteOffset":6708,"componentType":5126,"count":590,"max":[19.633333206176758],"min":[0.0],"type":"SCALAR"},{"bufferView":8,"byteOffset":9440,"componentType":5126,"count":590,"max":[-0.6223266124725342,0.04956575110554695,0.038331083953380585,0.7821976542472839],"min":[-0.6937698721885681,-0.03994029015302658,-0.03860849142074585,0.7193019390106201],"type":"VEC4"},{"bufferView":6,"byteOffset":9068,"componentType":5126,"count":1,"max":[0.0],"min":[0.0],"type":"SCALAR"},{"bufferView":8,"byteOffset":18880,"componentType":5126,"count":1,"max":[0.017451442778110504,0.0008419577497988939,0.13351531326770782,0.9908927083015442],"min":[0.017451442778110504,0.0008419577497988939,0.13351531326770782,0.9908927083015442],"type":"VEC4"},{"bufferView":6,"byteOffset":9072,"componentType":5126,"count":1,"max":[0.0],"min":[0.0],"type":"SCALAR"},{"bufferView":8,"byteOffset":18896,"componentType":5126,"count":1,"max":[-0.03531882166862488,-0.022868873551487923,0.04413104057312012,0.9981393218040466],"min":[-0.03531882166862488,-0.022868873551487923,0.04413104057312012,0.9981393218040466],"type":"VEC4"},{"bufferView":6,"byteOffset":9076,"componentType":5126,"count":1,"max":[0.0],"min":[0.0],"type":"SCALAR"},{"bufferView":8,"byteOffset":18912,"componentType":5126,"count":1,"max":[-0.04133954644203186,-0.033339329063892365,-0.1631978154182434,0.9851629137992859],"min":[-0.04133954644203186,-0.033339329063892365,-0.1631978154182434,0.9851629137992859],"type":"VEC4"},{"bufferView":6,"byteOffset":9080,"componentType":5126,"count":550,"max":[19.633333206176758],"min":[0.0],"type":"SCALAR"},{"bufferView":7,"byteOffset":13044,"componentType":5126,"count":550,"max":[0.016652200371026993,21.044776916503906,4.547473508864641e-13],"min":[0.016652200371026993,21.044776916503906,-4.547473508864641e-13],"type":"VEC3"},{"bufferView":6,"byteOffset":11280,"componentType":5126,"count":590,"max":[19.633333206176758],"min":[0.0],"type":"SCALAR"},{"bufferView":8,"byteOffset":18928,"componentType":5126,"count":590,"max":[-0.005848631728440523,8.514200453646481e-05,-0.002125936560332775,0.999980628490448],"min":[-0.1440185159444809,4.688229637395125e-06,-0.04735387861728668,0.9884413480758667],"type":"VEC4"},{"bufferView":6,"byteOffset":13640,"componentType":5126,"count":533,"max":[19.633333206176758],"min":[0.0],"type":"SCALAR"},{"bufferView":7,"byteOffset":19644,"componentType":5126,"count":533,"max":[-0.024711107835173607,24.226947784423828,4.547473508864641e-13],"min":[-0.024711107835173607,24.226947784423828,-4.547473508864641e-13],"type":"VEC3"},{"bufferView":6,"byteOffset":15772,"componentType":5126,"count":590,"max":[19.633333206176758],"min":[0.0],"type":"SCALAR"},{"bufferView":8,"byteOffset":28368,"componentType":5126,"count":590,"max":[6.594915902269349e-08,1.911265826493036e-06,0.0009066665661521256,0.9999995827674866],"min":[-0.22011345624923706,-2.3174054149421863e-05,-0.071172334253788,0.9728744029998779],"type":"VEC4"},{"bufferView":6,"byteOffset":18132,"componentType":5126,"count":546,"max":[19.633333206176758],"min":[0.0],"type":"SCALAR"},{"bufferView":7,"byteOffset":26040,"componentType":5126,"count":546,"max":[3.410605131648481e-13,75.1951675415039,1.6423642591689713e-05],"min":[-4.547473508864641e-13,75.1951675415039,1.642364077270031e-05],"type":"VEC3"},{"bufferView":6,"byteOffset":20316,"componentType":5126,"count":590,"max":[19.633333206176758],"min":[0.0],"type":"SCALAR"},{"bufferView":8,"byteOffset":37808,"componentType":5126,"count":590,"max":[0.2262709140777588,0.008665012195706367,0.0714145302772522,0.9999624490737915],"min":[-0.32156893610954285,0.007979873567819595,-0.10267192870378494,0.9412694573402405],"type":"VEC4"},{"bufferView":6,"byteOffset":22676,"componentType":5126,"count":588,"max":[19.633333206176758],"min":[0.0],"type":"SCALAR"},{"bufferView":7,"byteOffset":32592,"componentType":5126,"count":588,"max":[3.410605131648481e-13,226.9670867919922,4.547473508864641e-13],"min":[-4.547473508864641e-13,226.9670867919922,-4.547473508864641e-13],"type":"VEC3"},{"bufferView":6,"byteOffset":25028,"componentType":5126,"count":590,"max":[19.633333206176758],"min":[0.0],"type":"SCALAR"},{"bufferView":8,"byteOffset":47248,"componentType":5126,"count":590,"max":[0.24235369265079498,0.9987024068832397,0.34284090995788574,0.5806044936180115],"min":[-0.4310359060764313,-0.8578417301177979,-0.4357217252254486,-0.49974897503852844],"type":"VEC4"},{"bufferView":6,"byteOffset":27388,"componentType":5126,"count":588,"max":[19.633333206176758],"min":[0.0],"type":"SCALAR"},{"bufferView":7,"byteOffset":39648,"componentType":5126,"count":588,"max":[4.547473508864641e-13,205.95603942871094,4.547473508864641e-13],"min":[-2.2737367544323206e-13,205.95603942871094,-4.547473508864641e-13],"type":"VEC3"},{"bufferView":6,"byteOffset":29740,"componentType":5126,"count":590,"max":[19.633333206176758],"min":[0.0],"type":"SCALAR"},{"bufferView":8,"byteOffset":56688,"componentType":5126,"count":590,"max":[-2.2975747924647294e-05,-0.0016863455530256033,0.8399580121040344,0.9999528527259827],"min":[-0.0021246462129056454,-0.003107239492237568,0.009199145250022411,0.5426445603370667],"type":"VEC4"},{"bufferView":6,"byteOffset":32100,"componentType":5126,"count":582,"max":[19.633333206176758],"min":[0.0],"type":"SCALAR"},{"bufferView":7,"byteOffset":46704,"componentType":5126,"count":582,"max":[2.2737367544323206e-13,111.75242614746094,6.821210263296962e-13],"min":[-2.2737367544323206e-13,111.75242614746094,-2.2737367544323206e-13],"type":"VEC3"},{"bufferView":6,"byteOffset":34428,"componentType":5126,"count":590,"max":[19.633333206176758],"min":[0.0],"type":"SCALAR"},{"bufferView":8,"byteOffset":66128,"componentType":5126,"count":590,"max":[0.589229166507721,0.4749774634838104,0.6857455968856812,0.9953271150588989],"min":[-0.622832715511322,-0.6330440044403076,-0.3889821767807007,0.5985788106918335],"type":"VEC4"},{"bufferView":6,"byteOffset":36788,"componentType":5126,"count":590,"max":[19.633333206176758],"min":[0.0],"type":"SCALAR"},{"bufferView":8,"byteOffset":75568,"componentType":5126,"count":590,"max":[0.6728168725967407,0.6984683871269226,0.5553787350654602,0.7129204273223877],"min":[-0.46661317348480225,-0.5236245393753052,-0.5624356269836426,-0.47340232133865356],"type":"VEC4"},{"bufferView":6,"byteOffset":39148,"componentType":5126,"count":1,"max":[0.0],"min":[0.0],"type":"SCALAR"},{"bufferView":8,"byteOffset":85008,"componentType":5126,"count":1,"max":[-0.02054176852107048,-0.0008624095935374498,-0.17434357106685638,0.9844702482223511],"min":[-0.02054176852107048,-0.0008624095935374498,-0.17434357106685638,0.9844702482223511],"type":"VEC4"},{"bufferView":6,"byteOffset":39152,"componentType":5126,"count":1,"max":[0.0],"min":[0.0],"type":"SCALAR"},{"bufferView":8,"byteOffset":85024,"componentType":5126,"count":1,"max":[0.06873393803834915,0.028705313801765442,0.24838775396347046,0.9657925367355347],"min":[0.06873393803834915,0.028705313801765442,0.24838775396347046,0.9657925367355347],"type":"VEC4"},{"bufferView":6,"byteOffset":39156,"componentType":5126,"count":1,"max":[0.0],"min":[0.0],"type":"SCALAR"},{"bufferView":8,"byteOffset":85040,"componentType":5126,"count":1,"max":[0.014210459776222706,-0.04200298339128494,-0.2374890148639679,0.9703776240348816],"min":[0.014210459776222706,-0.04200298339128494,-0.2374890148639679,0.9703776240348816],"type":"VEC4"},{"bufferView":6,"byteOffset":39160,"componentType":5126,"count":540,"max":[19.633333206176758],"min":[0.0],"type":"SCALAR"},{"bufferView":7,"byteOffset":53688,"componentType":5126,"count":540,"max":[0.09278889000415802,25.597383499145508,4.547473508864641e-13],"min":[0.09278889000415802,25.597383499145508,-4.547473508864641e-13],"type":"VEC3"},{"bufferView":6,"byteOffset":41320,"componentType":5126,"count":590,"max":[19.633333206176758],"min":[0.0],"type":"SCALAR"},{"bufferView":8,"byteOffset":85056,"componentType":5126,"count":590,"max":[0.15087047219276428,0.0010211492190137506,0.02101045288145542,0.9999452829360962],"min":[-0.03695831075310707,-0.001701393281109631,-0.03084512986242771,0.9880707263946533],"type":"VEC4"},{"bufferView":6,"byteOffset":43680,"componentType":5126,"count":540,"max":[19.633333206176758],"min":[0.0],"type":"SCALAR"},{"bufferView":7,"byteOffset":60168,"componentType":5126,"count":540,"max":[-0.7334524393081665,30.055997848510742,2.2737367544323206e-13],"min":[-0.7334524393081665,30.055997848510742,-6.821210263296962e-13],"type":"VEC3"},{"bufferView":6,"byteOffset":45840,"componentType":5126,"count":590,"max":[19.633333206176758],"min":[0.0],"type":"SCALAR"},{"bufferView":8,"byteOffset":94496,"componentType":5126,"count":590,"max":[0.2252209484577179,0.0019038262544199824,0.014012180268764496,0.9999086260795593],"min":[4.523655206867261e-06,-0.0004482912190724164,-0.048406682908535004,0.9731026291847229],"type":"VEC4"},{"bufferView":6,"byteOffset":48200,"componentType":5126,"count":522,"max":[19.633333206176758],"min":[0.0],"type":"SCALAR"},{"bufferView":7,"byteOffset":66648,"componentType":5126,"count":522,"max":[4.547473508864641e-13,71.10812377929688,-7.115099379007006e-06],"min":[-4.547473508864641e-13,71.10812377929688,-7.115100288501708e-06],"type":"VEC3"},{"bufferView":6,"byteOffset":50288,"componentType":5126,"count":590,"max":[19.633333206176758],"min":[0.0],"type":"SCALAR"},{"bufferView":8,"byteOffset":103936,"componentType":5126,"count":590,"max":[0.49536558985710144,0.011887182481586933,0.054757095873355865,0.9999188780784607],"min":[-0.2376282811164856,0.0018634756561368704,-0.1493576467037201,0.8556864857673645],"type":"VEC4"},{"bufferView":6,"byteOffset":52648,"componentType":5126,"count":589,"max":[19.633333206176758],"min":[0.0],"type":"SCALAR"},{"bufferView":7,"byteOffset":72912,"componentType":5126,"count":589,"max":[4.547473508864641e-13,227.02471923828125,6.821210263296962e-13],"min":[-4.547473508864641e-13,227.02471923828125,-2.2737367544323206e-13],"type":"VEC3"},{"bufferView":6,"byteOffset":55004,"componentType":5126,"count":590,"max":[19.633333206176758],"min":[0.0],"type":"SCALAR"},{"bufferView":8,"byteOffset":113376,"componentType":5126,"count":590,"max":[0.40010103583335876,0.5006381869316101,0.4115920662879944,0.9981470704078674],"min":[-0.6541401147842407,-0.7017679214477539,-0.6129865646362305,0.6641272306442261],"type":"VEC4"},{"bufferView":6,"byteOffset":57364,"componentType":5126,"count":587,"max":[19.633333206176758],"min":[0.0],"type":"SCALAR"},{"bufferView":7,"byteOffset":79980,"componentType":5126,"count":587,"max":[4.547473508864641e-13,205.48410034179688,4.547473508864641e-13],"min":[-2.2737367544323206e-13,205.48410034179688,-4.547473508864641e-13],"type":"VEC3"},{"bufferView":6,"byteOffset":59712,"componentType":5126,"count":590,"max":[19.633333206176758],"min":[0.0],"type":"SCALAR"},{"bufferView":8,"byteOffset":122816,"componentType":5126,"count":590,"max":[0.0009518912993371487,0.002729772124439478,-2.1786941317714081e-07,0.9999962449073792],"min":[-1.4218892374628922e-07,0.001368739758618176,-0.8651801347732544,0.5014584064483643],"type":"VEC4"},{"bufferView":6,"byteOffset":62072,"componentType":5126,"count":584,"max":[19.633333206176758],"min":[0.0],"type":"SCALAR"},{"bufferView":7,"byteOffset":87024,"componentType":5126,"count":584,"max":[2.2737367544323206e-13,111.75242614746094,4.547473508864641e-13],"min":[-2.2737367544323206e-13,111.75242614746094,-4.547473508864641e-13],"type":"VEC3"},{"bufferView":6,"byteOffset":64408,"componentType":5126,"count":590,"max":[19.633333206176758],"min":[0.0],"type":"SCALAR"},{"bufferView":8,"byteOffset":132256,"componentType":5126,"count":590,"max":[0.5973886251449585,0.5411142706871033,0.4714796543121338,0.9958561658859253],"min":[-0.32439562678337097,-0.3633299767971039,-0.7711371183395386,0.5912556648254395],"type":"VEC4"},{"bufferView":6,"byteOffset":66768,"componentType":5126,"count":590,"max":[19.633333206176758],"min":[0.0],"type":"SCALAR"},{"bufferView":8,"byteOffset":141696,"componentType":5126,"count":590,"max":[0.6899972558021545,0.6524260640144348,0.6406477093696594,0.58234041929245],"min":[-0.4663257896900177,-0.6289329528808594,-0.5965802669525146,-0.4998752176761627],"type":"VEC4"},{"bufferView":6,"byteOffset":69128,"componentType":5126,"count":579,"max":[19.633333206176758],"min":[0.0],"type":"SCALAR"},{"bufferView":7,"byteOffset":94032,"componentType":5126,"count":579,"max":[1.1368683772161603e-13,108.16629028320312,2.2737367544323206e-13],"min":[-2.2737367544323206e-13,108.16629028320312,-2.2737367544323206e-13],"type":"VEC3"},{"bufferView":6,"byteOffset":71444,"componentType":5126,"count":590,"max":[19.633333206176758],"min":[0.0],"type":"SCALAR"},{"bufferView":8,"byteOffset":151136,"componentType":5126,"count":590,"max":[0.10244976729154587,0.024707304313778877,0.0733078122138977,0.9999979734420776],"min":[-0.02886914275586605,-0.017806895077228546,-0.0977373942732811,0.9932377338409424],"type":"VEC4"},{"bufferView":6,"byteOffset":73804,"componentType":5126,"count":574,"max":[19.633333206176758],"min":[0.0],"type":"SCALAR"},{"bufferView":7,"byteOffset":100980,"componentType":5126,"count":574,"max":[2.2737367544323206e-13,94.64537811279297,2.2737367544323206e-13],"min":[-1.1368683772161603e-13,94.64537811279297,-2.2737367544323206e-13],"type":"VEC3"},{"bufferView":6,"byteOffset":76100,"componentType":5126,"count":590,"max":[19.633333206176758],"min":[0.0],"type":"SCALAR"},{"bufferView":8,"byteOffset":160576,"componentType":5126,"count":590,"max":[0.10221263021230698,0.024162672460079193,0.07372970134019852,0.9999979734420776],"min":[-0.02922026254236698,-0.018538758158683777,-0.09818850457668304,0.9932398200035095],"type":"VEC4"},{"bufferView":6,"byteOffset":78460,"componentType":5126,"count":521,"max":[19.633333206176758],"min":[0.0],"type":"SCALAR"},{"bufferView":7,"byteOffset":107868,"componentType":5126,"count":521,"max":[1.1368683772161603e-13,0.5203247666358948,81.1229248046875],"min":[-2.2737367544323206e-13,0.5203247666358948,81.1229248046875],"type":"VEC3"},{"bufferView":6,"byteOffset":80544,"componentType":5126,"count":590,"max":[19.633333206176758],"min":[0.0],"type":"SCALAR"},{"bufferView":8,"byteOffset":170016,"componentType":5126,"count":590,"max":[0.8388031125068665,0.1411949098110199,0.15338116884231567,0.8473193049430847],"min":[0.5286080837249756,-0.10051556676626205,-0.18593327701091766,0.5420078635215759],"type":"VEC4"},{"bufferView":6,"byteOffset":82904,"componentType":5126,"count":581,"max":[19.633333206176758],"min":[0.0],"type":"SCALAR"},{"bufferView":7,"byteOffset":114120,"componentType":5126,"count":581,"max":[2.2737367544323206e-13,148.23495483398438,2.2737367544323206e-13],"min":[-2.2737367544323206e-13,148.23495483398438,-1.1368683772161603e-13],"type":"VEC3"},{"bufferView":6,"byteOffset":85228,"componentType":5126,"count":590,"max":[19.633333206176758],"min":[0.0],"type":"SCALAR"},{"bufferView":8,"byteOffset":179456,"componentType":5126,"count":590,"max":[0.6017740368843079,-0.018830273300409317,0.03839265555143356,0.9582968354225159],"min":[0.28306838870048523,-0.06798968464136124,0.006716196890920401,0.7972993850708008],"type":"VEC4"},{"bufferView":6,"byteOffset":87588,"componentType":5126,"count":589,"max":[19.633333206176758],"min":[0.0],"type":"SCALAR"},{"bufferView":7,"byteOffset":121092,"componentType":5126,"count":589,"max":[2.2737367544323206e-13,473.55999755859375,2.2737367544323206e-13],"min":[-2.2737367544323206e-13,473.55999755859375,-2.2737367544323206e-13],"type":"VEC3"},{"bufferView":6,"byteOffset":89944,"componentType":5126,"count":590,"max":[19.633333206176758],"min":[0.0],"type":"SCALAR"},{"bufferView":8,"byteOffset":188896,"componentType":5126,"count":590,"max":[0.6834880709648132,0.2984534204006195,0.22979924082756042,0.968477725982666],"min":[0.13705970346927643,-0.16806550323963165,-0.25195634365081787,0.7135668992996216],"type":"VEC4"},{"bufferView":6,"byteOffset":92304,"componentType":5126,"count":580,"max":[19.633333206176758],"min":[0.0],"type":"SCALAR"},{"bufferView":7,"byteOffset":128160,"componentType":5126,"count":580,"max":[2.2737367544323206e-13,473.2900390625,4.547473508864641e-13],"min":[-2.2737367544323206e-13,473.2900390625,-2.2737367544323206e-13],"type":"VEC3"},{"bufferView":6,"byteOffset":94624,"componentType":5126,"count":590,"max":[19.633333206176758],"min":[0.0],"type":"SCALAR"},{"bufferView":8,"byteOffset":198336,"componentType":5126,"count":590,"max":[-0.4046584665775299,0.09638534486293793,0.14730031788349152,0.9125486016273499],"min":[-0.6597563624382019,-0.10998807102441788,-0.07586836069822311,0.7513736486434937],"type":"VEC4"},{"bufferView":6,"byteOffset":96984,"componentType":5126,"count":590,"max":[19.633333206176758],"min":[0.0],"type":"SCALAR"},{"bufferView":8,"byteOffset":207776,"componentType":5126,"count":590,"max":[0.13109932839870453,-0.24780726432800293,0.9685221910476685,0.2042352557182312],"min":[-0.18671967089176178,-0.6773291826248169,0.733363926410675,-0.20781095325946808],"type":"VEC4"},{"bufferView":6,"byteOffset":99344,"componentType":5126,"count":587,"max":[19.633333206176758],"min":[0.0],"type":"SCALAR"},{"bufferView":7,"byteOffset":135120,"componentType":5126,"count":587,"max":[2.2737367544323206e-13,152.57180786132812,2.2737367544323206e-13],"min":[-2.2737367544323206e-13,152.57180786132812,-2.2737367544323206e-13],"type":"VEC3"},{"bufferView":6,"byteOffset":101692,"componentType":5126,"count":590,"max":[19.633333206176758],"min":[0.0],"type":"SCALAR"},{"bufferView":8,"byteOffset":217216,"componentType":5126,"count":590,"max":[0.5811376571655273,0.0647139772772789,-0.007621254306286573,0.9675716161727905],"min":[0.24964039027690887,0.016073450446128845,-0.03091462142765522,0.8125089406967163],"type":"VEC4"},{"bufferView":6,"byteOffset":104052,"componentType":5126,"count":584,"max":[19.633333206176758],"min":[0.0],"type":"SCALAR"},{"bufferView":7,"byteOffset":142164,"componentType":5126,"count":584,"max":[2.2737367544323206e-13,473.23675537109375,2.2737367544323206e-13],"min":[-2.2737367544323206e-13,473.23675537109375,-2.2737367544323206e-13],"type":"VEC3"},{"bufferView":6,"byteOffset":106388,"componentType":5126,"count":590,"max":[19.633333206176758],"min":[0.0],"type":"SCALAR"},{"bufferView":8,"byteOffset":226656,"componentType":5126,"count":590,"max":[0.7255702018737793,0.19201554358005524,0.25805673003196716,0.9716976881027222],"min":[0.19766469299793243,-0.16465900838375092,-0.1917043924331665,0.6844991445541382],"type":"VEC4"},{"bufferView":6,"byteOffset":108748,"componentType":5126,"count":584,"max":[19.633333206176758],"min":[0.0],"type":"SCALAR"},{"bufferView":7,"byteOffset":149172,"componentType":5126,"count":584,"max":[2.2737367544323206e-13,473.22967529296875,4.547473508864641e-13],"min":[-2.2737367544323206e-13,473.22967529296875,-4.547473508864641e-13],"type":"VEC3"},{"bufferView":6,"byteOffset":111084,"componentType":5126,"count":590,"max":[19.633333206176758],"min":[0.0],"type":"SCALAR"},{"bufferView":8,"byteOffset":236096,"componentType":5126,"count":590,"max":[-0.3834173083305359,0.10405132174491882,0.08901646733283997,0.9133925437927246],"min":[-0.7283722162246704,-0.07016315311193466,-0.14841587841510773,0.6805196404457092],"type":"VEC4"},{"bufferView":6,"byteOffset":113444,"componentType":5126,"count":590,"max":[19.633333206176758],"min":[0.0],"type":"SCALAR"},{"bufferView":8,"byteOffset":245536,"componentType":5126,"count":590,"max":[0.23025766015052795,0.7609289884567261,0.9776972532272339,0.15455006062984467],"min":[-0.12947934865951538,-0.6980228424072266,-0.7033836245536804,-0.16650786995887756],"type":"VEC4"},{"bufferView":6,"byteOffset":115804,"componentType":5126,"count":590,"max":[19.633333206176758],"min":[0.0],"type":"SCALAR"},{"bufferView":7,"byteOffset":156180,"componentType":5126,"count":590,"max":[105.2650375366211,1011.1669921875,1047.985107421875],"min":[-692.254638671875,902.4364624023438,-228.63743591308594],"type":"VEC3"},{"bufferView":6,"byteOffset":118164,"componentType":5126,"count":590,"max":[19.633333206176758],"min":[0.0],"type":"SCALAR"},{"bufferView":8,"byteOffset":254976,"componentType":5126,"count":590,"max":[0.5338138937950134,0.7242415547370911,0.7485170960426331,0.7262269258499146],"min":[-0.7952601909637451,-0.5155922770500183,-0.5292221903800964,-0.493766725063324],"type":"VEC4"}],"animations":[{"channels":[{"sampler":0,"target":{"node":13,"path":"translation"}},{"sampler":1,"target":{"node":13,"path":"rotation"}},{"sampler":2,"target":{"node":12,"path":"translation"}},{"sampler":3,"target":{"node":12,"path":"rotation"}},{"sampler":4,"target":{"node":21,"path":"rotation"}},{"sampler":5,"target":{"node":20,"path":"rotation"}},{"sampler":6,"target":{"node":19,"path":"rotation"}},{"sampler":7,"target":{"node":25,"path":"translation"}},{"sampler":8,"target":{"node":25,"path":"rotation"}},{"sampler":9,"target":{"node":24,"path":"translation"}},{"sampler":10,"target":{"node":24,"path":"rotation"}},{"sampler":11,"target":{"node":23,"path":"translation"}},{"sampler":12,"target":{"node":23,"path":"rotation"}},{"sampler":13,"target":{"node":18,"path":"translation"}},{"sampler":14,"target":{"node":18,"path":"rotation"}},{"sampler":15,"target":{"node":17,"path":"translation"}},{"sampler":16,"target":{"node":17,"path":"rotation"}},{"sampler":17,"target":{"node":16,"path":"translation"}},{"sampler":18,"target":{"node":16,"path":"rotation"}},{"sampler":19,"target":{"node":15,"path":"rotation"}},{"sampler":20,"target":{"node":33,"path":"rotation"}},{"sampler":21,"target":{"node":32,"path":"rotation"}},{"sampler":22,"target":{"node":31,"path":"rotation"}},{"sampler":23,"target":{"node":37,"path":"translation"}},{"sampler":24,"target":{"node":37,"path":"rotation"}},{"sampler":25,"target":{"node":36,"path":"translation"}},{"sampler":26,"target":{"node":36,"path":"rotation"}},{"sampler":27,"target":{"node":35,"path":"translation"}},{"sampler":28,"target":{"node":35,"path":"rotation"}},{"sampler":29,"target":{"node":30,"path":"translation"}},{"sampler":30,"target":{"node":30,"path":"rotation"}},{"sampler":31,"target":{"node":29,"path":"translation"}},{"sampler":32,"target":{"node":29,"path":"rotation"}},{"sampler":33,"target":{"node":28,"path":"translation"}},{"sampler":34,"target":{"node":28,"path":"rotation"}},{"sampler":35,"target":{"node":27,"path":"rotation"}},{"sampler":36,"target":{"node":11,"path":"translation"}},{"sampler":37,"target":{"node":11,"path":"rotation"}},{"sampler":38,"target":{"node":10,"path":"translation"}},{"sampler":39,"target":{"node":10,"path":"rotation"}},{"sampler":40,"target":{"node":9,"path":"translation"}},{"sampler":41,"target":{"node":9,"path":"rotation"}},{"sampler":42,"target":{"node":42,"path":"translation"}},{"sampler":43,"target":{"node":42,"path":"rotation"}},{"sampler":44,"target":{"node":41,"path":"translation"}},{"sampler":45,"target":{"node":41,"path":"rotation"}},{"sampler":46,"target":{"node":40,"path":"translation"}},{"sampler":47,"target":{"node":40,"path":"rotation"}},{"sampler":48,"target":{"node":39,"path":"rotation"}},{"sampler":49,"target":{"node":47,"path":"translation"}},{"sampler":50,"target":{"node":47,"path":"rotation"}},{"sampler":51,"target":{"node":46,"path":"translation"}},{"sampler":52,"target":{"node":46,"path":"rotation"}},{"sampler":53,"target":{"node":45,"path":"translation"}},{"sampler":54,"target":{"node":45,"path":"rotation"}},{"sampler":55,"target":{"node":44,"path":"rotation"}},{"sampler":56,"target":{"node":8,"path":"translation"}},{"sampler":57,"target":{"node":8,"path":"rotation"}}],"name":"Dance","samplers":[{"input":7,"interpolation":"LINEAR","output":8},{"input":9,"interpolation":"LINEAR","output":10},{"input":11,"interpolation":"LINEAR","output":12},{"input":13,"interpolation":"LINEAR","output":14},{"input":15,"interpolation":"LINEAR","output":16},{"input":17,"interpolation":"LINEAR","output":18},{"input":19,"interpolation":"LINEAR","output":20},{"input":21,"interpolation":"LINEAR","output":22},{"input":23,"interpolation":"LINEAR","output":24},{"input":25,"interpolation":"LINEAR","output":26},{"input":27,"interpolation":"LINEAR","output":28},{"input":29,"interpolation":"LINEAR","output":30},{"input":31,"interpolation":"LINEAR","output":32},{"input":33,"interpolation":"LINEAR","output":34},{"input":35,"interpolation":"LINEAR","output":36},{"input":37,"interpolation":"LINEAR","output":38},{"input":39,"interpolation":"LINEAR","output":40},{"input":41,"interpolation":"LINEAR","output":42},{"input":43,"interpolation":"LINEAR","output":44},{"input":45,"interpolation":"LINEAR","output":46},{"input":47,"interpolation":"LINEAR","output":48},{"input":49,"interpolation":"LINEAR","output":50},{"input":51,"interpolation":"LINEAR","output":52},{"input":53,"interpolation":"LINEAR","output":54},{"input":55,"interpolation":"LINEAR","output":56},{"input":57,"interpolation":"LINEAR","output":58},{"input":59,"interpolation":"LINEAR","output":60},{"input":61,"interpolation":"LINEAR","output":62},{"input":63,"interpolation":"LINEAR","output":64},{"input":65,"interpolation":"LINEAR","output":66},{"input":67,"interpolation":"LINEAR","output":68},{"input":69,"interpolation":"LINEAR","output":70},{"input":71,"interpolation":"LINEAR","output":72},{"input":73,"interpolation":"LINEAR","output":74},{"input":75,"interpolation":"LINEAR","output":76},{"input":77,"interpolation":"LINEAR","output":78},{"input":79,"interpolation":"LINEAR","output":80},{"input":81,"interpolation":"LINEAR","output":82},{"input":83,"interpolation":"LINEAR","output":84},{"input":85,"interpolation":"LINEAR","output":86},{"input":87,"interpolation":"LINEAR","output":88},{"input":89,"interpolation":"LINEAR","output":90},{"input":91,"interpolation":"LINEAR","output":92},{"input":93,"interpolation":"LINEAR","output":94},{"input":95,"interpolation":"LINEAR","output":96},{"input":97,"interpolation":"LINEAR","output":98},{"input":99,"interpolation":"LINEAR","output":100},{"input":101,"interpolation":"LINEAR","output":102},{"input":103,"interpolation":"LINEAR","output":104},{"input":105,"interpolation":"LINEAR","output":106},{"input":107,"interpolation":"LINEAR","output":108},{"input":109,"interpolation":"LINEAR","output":110},{"input":111,"interpolation":"LINEAR","output":112},{"input":113,"interpolation":"LINEAR","output":114},{"input":115,"interpolation":"LINEAR","output":116},{"input":117,"interpolation":"LINEAR","output":118},{"input":119,"interpolation":"LINEAR","output":120},{"input":121,"interpolation":"LINEAR","output":122}]}],"asset":{"extras":{"author":"Walter Araujo (https://sketchfab.com/walteraraujo)","license":"CC-BY-4.0 (http://creativecommons.org/licenses/by/4.0/)","source":"https://sketchfab.com/3d-models/woman-belly-dance-nude-8dc14461787048519c228dd31d2cd757","title":"Woman Belly Dance Nude"},"generator":"Sketchfab-16.54.0","version":"2.0"},"bufferViews":[{"buffer":0,"byteLength":129040,"byteStride":8,"name":"shortBufferViews","target":34962},{"buffer":0,"byteLength":324504,"byteOffset":129040,"name":"floatBufferViews","target":34963},{"buffer":0,"byteLength":129040,"byteOffset":453544,"byteStride":8,"name":"floatBufferViews","target":34962},{"buffer":0,"byteLength":387120,"byteOffset":582584,"byteStride":12,"name":"floatBufferViews","target":34962},{"buffer":0,"byteLength":258080,"byteOffset":969704,"byteStride":16,"name":"floatBufferViews","target":34962},{"buffer":0,"byteLength":2688,"byteOffset":1227784,"name":"floatBufferViews"},{"buffer":0,"byteLength":120524,"byteOffset":1230472,"name":"floatBufferViews"},{"buffer":0,"byteLength":163260,"byteOffset":1350996,"byteStride":12,"name":"floatBufferViews"},{"buffer":0,"byteLength":264416,"byteOffset":1514256,"byteStride":16,"name":"floatBufferViews"}],"buffers":[{"byteLength":1778672,"uri":"scene.bin"}],"materials":[{"doubleSided":true,"name":"Milton","pbrMetallicRoughness":{"metallicFactor":0.0}}],"meshes":[{"name":"output_c6dcead1-78b2-4257-99f1-7b78c2b70410_Milton_0","primitives":[{"attributes":{"JOINTS_0":5,"NORMAL":1,"POSITION":0,"TEXCOORD_0":2,"TEXCOORD_1":2,"TEXCOORD_2":2,"TEXCOORD_3":2,"TEXCOORD_4":2,"TEXCOORD_5":2,"TEXCOORD_6":2,"TEXCOORD_7":2,"TEXCOORD_8":2,"TEXCOORD_9":2,"WEIGHTS_0":6},"indices":3,"material":0,"mode":4}]}],"nodes":[{"children":[1],"matrix":[1.7737281322479248,0.0,0.0,0.0,0.0,3.9384676236940415e-16,-1.7737281322479248,0.0,0.0,1.7737281322479248,3.9384676236940415e-16,0.0,0.0,0.0,0.0,1.0],"name":"Sketchfab_model"},{"children":[2],"matrix":[0.0010000000474974513,0.0,0.0,0.0,0.0,0.0,0.0010000000474974513,0.0,0.0,-0.0010000000474974513,0.0,0.0,0.0,0.0,0.0,1.0],"name":"c3d0e5764b9e4938aa2f40ee74cd0ab2.fbx"},{"children":[3],"name":"Object_2"},{"children":[4],"name":"RootNode"},{"children":[5,7,6,49],"name":"Object_4"},{"children":[8],"name":"_rootJoint"},{"matrix":[1000.0,0.0,0.0,0.0,0.0,2.83276944882399e-13,1000.0,0.0,0.0,-1000.0,2.83276944882399e-13,0.0,0.0,0.0,0.0,1.0],"name":"Object_6"},{"mesh":0,"name":"Object_7","skin":0},{"children":[9,39,44],"name":"mixamorig:Hips_01","rotation":[-0.7071068286895752,-0.0,0.0,0.7071068286895752],"translation":[-2.72174072265625,0.010892455466091633,1078.494873046875]},{"children":[10],"name":"mixamorig:Spine_02","rotation":[0.7048355340957642,0.0,0.0,0.7093708515167236],"translation":[0.0,0.5203247666358948,81.1229248046875]},{"children":[11],"name":"mixamorig:Spine1_03","rotation":[2.719283243024506e-09,0.0,0.0,1.0],"translation":[0.0,94.64537811279297,0.0]},{"children":[12,15,27],"name":"mixamorig:Spine2_04","rotation":[6.158268339717665e-17,0.0,0.0,1.0],"translation":[0.0,108.16629028320312,-2.2737367544323206e-13]},{"children":[13],"name":"mixamorig:Neck_05","rotation":[-0.7048355340957642,-0.0,0.0,0.7093708515167236],"translation":[0.0,121.68682861328125,-1.3572891930380138e-06]},{"children":[14],"name":"mixamorig:Head_06","translation":[0.0,-9.744319915771484,80.2117919921875]},{"name":"mixamorig:HeadTop_End_07","translation":[0.0,-23.273664474487305,191.58056640625]},{"children":[16],"name":"mixamorig:LeftShoulder_08","rotation":[0.5368666648864746,0.4602590501308441,-0.536377489566803,0.4606897234916687],"translation":[54.8487548828125,112.92656707763672,0.04923205450177193]},{"children":[17],"name":"mixamorig:LeftArm_09","rotation":[-0.046042390167713165,0.0022620540112257004,-0.049018461257219315,0.9977335333824158],"translation":[0.0,111.75242614746094,1.1368683772161603e-13]},{"children":[18],"name":"mixamorig:LeftForeArm_010","rotation":[-0.058260343968868256,-0.003097705077379942,0.053004611283540726,0.9968885779380798],"translation":[0.0,205.95603942871094,0.0]},{"children":[19,23],"name":"mixamorig:LeftHand_011","rotation":[-0.29371997714042664,0.9302287697792053,0.09562483429908752,-0.19813911616802216],"translation":[0.0,226.9670867919922,0.0]},{"children":[20],"name":"mixamorig:LeftHandThumb1_012","rotation":[1.1372630979167297e-06,2.710856961130048e-07,0.23187044262886047,0.9727466702461243],"translation":[-16.63845443725586,36.58879470825195,1.101151792681776e-05]},{"children":[21],"name":"mixamorig:LeftHandThumb2_013","rotation":[0.08162994682788849,2.709652608002219e-17,-9.181422730749727e-18,0.9966627359390259],"translation":[1.3247182369232178,32.12809753417969,0.0]},{"children":[22],"name":"mixamorig:LeftHandThumb3_014","rotation":[-0.06726296246051788,2.7692719815242234e-17,1.866922240704113e-18,0.9977353811264038],"translation":[-4.873443603515625,39.14043426513672,3.410605131648481e-13]},{"name":"mixamorig:LeftHandThumb4_015","rotation":[8.326672684688674e-17,-2.7755575615628914e-17,-1.6653345369377348e-16,1.0],"translation":[3.5487256050109863,33.9565315246582,1.1368683772161603e-13]},{"children":[24],"name":"mixamorig:LeftHandIndex1_016","rotation":[-0.03531521186232567,0.008394571021199226,-0.23110800981521606,0.9722508192062378],"translation":[0.0,75.1951675415039,1.6423642591689713e-05]},{"children":[25],"name":"mixamorig:LeftHandIndex2_017","rotation":[-0.015838291496038437,4.1188538777236854e-17,2.841149675415896e-17,0.9998745918273926],"translation":[-0.024711107835173607,24.226947784423828,0.0]},{"children":[26],"name":"mixamorig:LeftHandIndex3_018","rotation":[0.0022806136403232813,1.265994886880551e-19,5.551101226491492e-17,0.9999974966049194],"translation":[0.016652200371026993,21.044776916503906,0.0]},{"name":"mixamorig:LeftHandIndex4_019","rotation":[1.1102230246251565e-16,-1.3877787807814457e-17,1.1102230246251565e-16,1.0],"translation":[0.008058907464146614,21.833173751831055,0.0]},{"children":[28],"name":"mixamorig:RightShoulder_020","rotation":[0.5358330607414246,-0.46114131808280945,0.5373988747596741,0.45981964468955994],"translation":[-54.8487548828125,112.92791748046875,-0.16160407662391663]},{"children":[29],"name":"mixamorig:RightArm_00","rotation":[-0.046099767088890076,-0.0015339942183345556,0.03322172537446022,0.998383104801178],"translation":[0.0,111.75242614746094,0.0]},{"children":[30],"name":"mixamorig:RightForeArm_021","rotation":[-0.058099694550037384,0.0027220917399972677,-0.04672151431441307,0.9972131848335266],"translation":[0.0,205.48410034179688,-5.684341886080802e-14]},{"children":[31,35],"name":"mixamorig:RightHand_022","rotation":[0.06297662109136581,-0.19984827935695648,-0.013423582538962364,0.9777087569236755],"translation":[-2.2737367544323206e-13,227.02471923828125,2.2737367544323206e-13]},{"children":[32],"name":"mixamorig:RightHandThumb1_023","rotation":[3.1658552757107827e-07,-1.0884626533425035e-07,-0.32513317465782166,0.9456683397293091],"translation":[23.640350341796875,32.35041046142578,-2.0584614048857475e-06]},{"children":[33],"name":"mixamorig:RightHandThumb2_024","rotation":[0.09147631376981735,-2.538977743877162e-18,-2.763920619269373e-17,0.9958073496818542],"translation":[-1.0009516477584839,32.038475036621094,0.0]},{"children":[34],"name":"mixamorig:RightHandThumb3_025","rotation":[0.032351016998291016,-2.693763502410841e-18,-8.322314435477255e-17,0.9994765520095825],"translation":[6.641081809997559,39.82422637939453,-1.1368683772161603e-13]},{"name":"mixamorig:RightHandThumb4_026","rotation":[-2.7755575615628914e-17,-1.5407439555097887e-33,5.551115123125783e-17,1.0],"translation":[-5.640130043029785,28.183691024780273,-2.2737367544323206e-13]},{"children":[36],"name":"mixamorig:RightHandIndex1_027","rotation":[-0.09101952612400055,0.0037816069088876247,-0.041338782757520676,0.9949835538864136],"translation":[1.1368683772161603e-13,71.10812377929688,-7.115099833754357e-06]},{"children":[37],"name":"mixamorig:RightHandIndex2_028","rotation":[0.04309457913041115,0.0,0.0,0.9990710020065308],"translation":[-0.7334524393081665,30.055997848510742,-1.1368683772161603e-13]},{"children":[38],"name":"mixamorig:RightHandIndex3_029","rotation":[0.033639270812273026,2.8206706686825534e-17,1.2936256093020873e-17,0.9994340538978577],"translation":[0.09278889000415802,25.597383499145508,-1.1368683772161603e-13]},{"name":"mixamorig:RightHandIndex4_030","rotation":[6.591949208711867e-17,2.7755575615628914e-17,1.249000902703301e-16,1.0],"translation":[0.6406635642051697,25.317522048950195,0.0]},{"children":[40],"name":"mixamorig:LeftUpLeg_031","rotation":[-0.00882392656058073,-0.6948510408401489,0.7190415859222412,-0.009131122380495071],"translation":[95.1292495727539,-6.837338447570801,-45.086181640625]},{"children":[41],"name":"mixamorig:LeftLeg_032","rotation":[-0.05242370814085007,-0.0016293376684188843,0.031022408977150917,0.9981416463851929],"translation":[0.0,473.2900390625,0.0]},{"children":[42],"name":"mixamorig:LeftFoot_033","rotation":[0.45483386516571045,0.022893328219652176,-0.011696922592818737,0.8902051448822021],"translation":[2.842170943040401e-14,473.55999755859375,0.0]},{"children":[43],"name":"mixamorig:LeftToeBase_034","rotation":[0.3055782616138458,-0.03772469237446785,0.01211745385080576,0.9513422846794128],"translation":[0.0,148.23495483398438,1.1368683772161603e-13]},{"name":"mixamorig:LeftToe_End_035","rotation":[2.706575742768317e-36,4.0657581468206416e-20,-6.657001339060997e-17,1.0],"translation":[1.4210854715202004e-14,53.057743072509766,0.0]},{"children":[45],"name":"mixamorig:RightUpLeg_036","rotation":[0.008843101561069489,-0.6962721347808838,0.7176655530929565,0.009114810265600681],"translation":[-95.1292495727539,-6.83730411529541,-45.086181640625]},{"children":[46],"name":"mixamorig:RightLeg_037","rotation":[-0.04526869207620621,0.0014054495841264725,-0.031000038608908653,0.9984927773475647],"translation":[1.4210854715202004e-14,473.22967529296875,0.0]},{"children":[47],"name":"mixamorig:RightFoot_038","rotation":[0.4607068598270416,-0.021853705868124962,0.01134809572249651,0.8872107267379761],"translation":[-1.4210854715202004e-14,473.23675537109375,0.0]},{"children":[48],"name":"mixamorig:RightToeBase_039","rotation":[0.29579493403434753,0.03751234710216522,-0.011625577695667744,0.9544439315795898],"translation":[-5.684341886080802e-14,152.57180786132812,0.0]},{"name":"mixamorig:RightToe_End_040","rotation":[2.614181886793685e-34,4.784042086092288e-18,-5.4643789493269423e-17,1.0],"translation":[2.842170943040401e-14,55.27724838256836,0.0]},{"name":"output_c6dcead1-78b2-4257-99f1-7b78c2b70410","rotation":[0.7071068286895752,0.0,0.0,0.7071068286895752],"scale":[1000.0,1000.0,1000.0]}],"scene":0,"scenes":[{"name":"Sketchfab_Scene","nodes":[0]}],"skins":[{"inverseBindMatrices":4,"joints":[5,8,9,10,11,12,13,14,15,16,17,18,19,20,21,22,23,24,25,26,27,28,29,30,31,32,33,34,35,36,37,38,39,40,41,42,43,44,45,46,47,48],"skeleton":5}]}