{
  "accessors": [
    {
      "bufferView": 2,
      "componentType": 5126,
      "count": 11315,
      "max": [
        63.346492767333984,
        14.985945701599121,
        179.7618408203125
      ],
      "min": [
        -63.3484992980957,
        -15.213515281677246,
        -0.6095319986343384
      ],
      "type": "VEC3"
    },
    {
      "bufferView": 2,
      "byteOffset": 135780,
      "componentType": 5126,
      "count": 11315,
      "max": [
        0.999980092048645,
        0.9999866485595703,
        0.9983298778533936
      ],
      "min": [
        -0.9999784827232361,
        -0.9999993443489075,
        -0.9999998807907104
      ],
      "type": "VEC3"
    },
    {
      "bufferView": 1,
      "componentType": 5126,
      "count": 11315,
      "max": [
        0.9883400201797485,
        0.9952899813652039
      ],
      "min": [
        0.012210000306367874,
        0.00965999998152256
      ],
      "type": "VEC2"
    },
    {
      "bufferView": 0,
      "componentType": 5125,
      "count": 62268,
      "type": "SCALAR"
    }
  ],
  "asset": {
    "extras": {
      "author": "Alexander Antipov (https://sketchfab.com/Dessen)",
      "license": "CC-BY-4.0 (http://creativecommons.org/licenses/by/4.0/)",
      "source": "https://sketchfab.com/3d-models/female-body-e96c6e3f43f44e73aac9e9791babe4fb",
      "title": "Female Body"
    },
    "generator": "Sketchfab-13.11.0",
    "version": "2.0"
  },
  "bufferViews": [
    {
      "buffer": 0,
      "byteLength": 249072,
      "name": "floatBufferViews",
      "target": 34963
    },
    {
      "buffer": 0,
      "byteLength": 90520,
      "byteOffset": 249072,
      "byteStride": 8,
      "name": "floatBufferViews",
      "target": 34962
    },
    {
      "buffer": 0,
      "byteLength": 271560,
      "byteOffset": 339592,
      "byteStride": 12,
      "name": "floatBufferViews",
      "target": 34962
    }
  ],
  "buffers": [
    {
      "byteLength": 611152,
      "uri": "scene.bin"
    }
  ],
  "materials": [
    {
      "doubleSided": true,
      "name": "BDWithUV1defaultMat",
      "pbrMetallicRoughness": {
        "metallicFactor": 0.0,
        "roughnessFactor": 0.6
      }
    }
  ],
  "meshes": [
    {
      "name": "Object_0",
      "primitives": [
        {
          "attributes": {
            "NORMAL": 1,
            "POSITION": 0,
            "TEXCOORD_0": 2
          },
          "indices": 3,
          "material": 0,
          "mode": 4
        }
      ]
    }
  ],
  "nodes": [
    {
      "children": [
        1
      ],
      "matrix": [
        1.0,
        0.0,
        0.0,
        0.0,
        0.0,
        2.220446049250313e-16,
        -1.0,
        0.0,
        0.0,
        1.0,
        2.220446049250313e-16,
        0.0,
        0.0,
        0.0,
        0.0,
        1.0
      ],
      "name": "Sketchfab_model"
    },
    {
      "children": [
        2
      ],
      "name": "BDWithUV1.obj.cleaner.materialmerger.gles"
    },
    {
      "mesh": 0,
      "name": "Object_2"
    }
  ],
  "scene": 0,
  "scenes": [
    {
      "name": "Sketchfab_Scene",
      "nodes": [
        0
      ]
    }
  ]
}
