{"accessors":[{"bufferView":3,"componentType":5126,"count":15168,"max":[0.4023438096046448,0.09823824465274811,1.004789113998413],"min":[-0.39813414216041565,-0.10488947480916977,0.004989981651306152],"type":"VEC3"},{"bufferView":3,"byteOffset":182016,"componentType":5126,"count":15168,"max":[0.9998196959495544,0.9999218583106995,0.9990824460983276],"min":[-0.99995356798172,-0.999726414680481,-0.9998953342437744],"type":"VEC3"},{"bufferView":2,"componentType":5126,"count":15168,"max":[0.9995515942573547,0.9995408654212952],"min":[0.0004484304809011519,0.000459134578704834],"type":"VEC2"},{"bufferView":1,"componentType":5125,"count":15168,"type":"SCALAR"},{"bufferView":5,"componentType":5126,"count":34,"max":[1000.0,960.5656127929688,928.4149169921875,0.0,992.55810546875,1000.0,279.92987060546875,0.0,406.54534912109375,1000.0,1000.0,0.0,196.40603637695312,537.5499267578125,804.5836181640625,1.0],"min":[-986.9658203125,-960.5656127929688,-964.6099243164062,0.0,-999.0397338867188,-939.123779296875,-1000.0,0.0,-284.2828063964844,-986.6853637695312,-970.2235107421875,0.0,-417.1577453613281,-877.91455078125,-44.31275177001953,1.0],"type":"MAT4"},{"bufferView":0,"componentType":5123,"count":15168,"type":"VEC4"},{"bufferView":4,"componentType":5126,"count":15168,"max":[1.0,0.49873223900794983,0.3168657720088959,0.15878532826900482],"min":[0.3020229935646057,0.0,0.0,0.0],"type":"VEC4"},{"bufferView":6,"componentType":5126,"count":638,"max":[21.799999237060547],"min":[0.0],"type":"SCALAR"},{"bufferView":7,"componentType":5126,"count":638,"max":[5.684341886080802e-14,50.91119384765625,16.528114318847656],"min":[-5.684341886080802e-14,50.91119384765625,16.528112411499023],"type":"VEC3"},{"bufferView":6,"byteOffset":2552,"componentType":5126,"count":655,"max":[21.799999237060547],"min":[0.0],"type":"SCALAR"},{"bufferView":8,"componentType":5126,"count":655,"max":[0.11555403470993042,0.3501042127609253,0.25205811858177185,0.9998751878738403],"min":[-0.27208077907562256,-0.5345774292945862,-0.11481893807649612,0.8368043899536133],"type":"VEC4"},{"bufferView":6,"byteOffset":5172,"componentType":5126,"count":623,"max":[21.799999237060547],"min":[0.0],"type":"SCALAR"},{"bufferView":7,"byteOffset":7656,"componentType":5126,"count":623,"max":[5.684341886080802e-14,73.19683837890625,-1.8090782987201237e-06],"min":[-1.1368683772161603e-13,73.19683837890625,-1.8090784124069614e-06],"type":"VEC3"},{"bufferView":6,"byteOffset":7664,"componentType":5126,"count":655,"max":[21.799999237060547],"min":[0.0],"type":"SCALAR"},{"bufferView":8,"byteOffset":10480,"componentType":5126,"count":655,"max":[0.0774121806025505,0.07802408933639526,0.04976344108581543,0.9999945163726807],"min":[-0.12017516046762466,-0.10463254898786545,-0.0809994712471962,0.9921125173568726],"type":"VEC4"},{"bufferView":6,"byteOffset":10284,"componentType":5126,"count":655,"max":[21.799999237060547],"min":[0.0],"type":"SCALAR"},{"bufferView":8,"byteOffset":20960,"componentType":5126,"count":655,"max":[0.16223669052124023,0.02519996650516987,-0.1374356895685196,0.9853362441062927],"min":[0.04562678933143616,0.00842338614165783,-0.1641942262649536,0.9768089056015015],"type":"VEC4"},{"bufferView":6,"byteOffset":12904,"componentType":5126,"count":653,"max":[21.799999237060547],"min":[0.0],"type":"SCALAR"},{"bufferView":7,"byteOffset":15132,"componentType":5126,"count":653,"max":[-8.483470992359798e-08,9.043994903564453,-1.2873601917817723e-07],"min":[-8.483516467094887e-08,9.043994903564453,-1.2873647392552812e-07],"type":"VEC3"},{"bufferView":6,"byteOffset":15516,"componentType":5126,"count":655,"max":[21.799999237060547],"min":[0.0],"type":"SCALAR"},{"bufferView":8,"byteOffset":31440,"componentType":5126,"count":655,"max":[0.23459120094776154,1.521500507806195e-07,0.06473688036203384,0.9998780488967896],"min":[-0.05656313896179199,-0.004607807379215956,0.004014906473457813,0.9699251651763916],"type":"VEC4"},{"bufferView":6,"byteOffset":18136,"componentType":5126,"count":644,"max":[21.799999237060547],"min":[0.0],"type":"SCALAR"},{"bufferView":7,"byteOffset":22968,"componentType":5126,"count":644,"max":[-7.640400099262479e-07,83.87821197509766,1.7661135416346951e-06],"min":[-7.64040350986761e-07,83.87821197509766,1.7661130868873443e-06],"type":"VEC3"},{"bufferView":6,"byteOffset":20712,"componentType":5126,"count":655,"max":[21.799999237060547],"min":[0.0],"type":"SCALAR"},{"bufferView":8,"byteOffset":41920,"componentType":5126,"count":655,"max":[0.4024565517902374,0.00547675509005785,0.21173344552516937,0.999642550945282],"min":[-0.1796097308397293,-0.06185192987322807,-0.012107734568417072,0.8994029760360718],"type":"VEC4"},{"bufferView":6,"byteOffset":23332,"componentType":5126,"count":649,"max":[21.799999237060547],"min":[0.0],"type":"SCALAR"},{"bufferView":7,"byteOffset":30696,"componentType":5126,"count":649,"max":[2.7177861738891806e-08,135.6822967529297,7.943566515677958e-07],"min":[2.717746383495978e-08,135.6822967529297,7.943561968204449e-07],"type":"VEC3"},{"bufferView":6,"byteOffset":25928,"componentType":5126,"count":655,"max":[21.799999237060547],"min":[0.0],"type":"SCALAR"},{"bufferView":8,"byteOffset":52400,"componentType":5126,"count":655,"max":[0.19720348715782166,0.8038024306297302,0.09726430475711823,0.992866575717926],"min":[-0.2893558144569397,-0.019307591021060944,-0.254521906375885,0.5334721803665161],"type":"VEC4"},{"bufferView":6,"byteOffset":28548,"componentType":5126,"count":554,"max":[21.799999237060547],"min":[0.0],"type":"SCALAR"},{"bufferView":7,"byteOffset":38484,"componentType":5126,"count":554,"max":[-6.328149311229936e-07,142.39219665527344,-1.5186399195954436e-06],"min":[-6.32815158496669e-07,142.39219665527344,-1.5186403743427945e-06],"type":"VEC3"},{"bufferView":6,"byteOffset":30764,"componentType":5126,"count":655,"max":[21.799999237060547],"min":[0.0],"type":"SCALAR"},{"bufferView":8,"byteOffset":62880,"componentType":5126,"count":655,"max":[0.10597719997167587,-0.001697201863862574,0.8968075513839722,0.9999921917915344],"min":[-7.568520743461704e-08,-0.0039514037780463696,3.6659804436567356e-07,0.4295371174812317],"type":"VEC4"},{"bufferView":6,"byteOffset":33384,"componentType":5126,"count":640,"max":[21.799999237060547],"min":[0.0],"type":"SCALAR"},{"bufferView":7,"byteOffset":45132,"componentType":5126,"count":640,"max":[-5.301061491991277e-07,52.67436981201172,-1.654883590163081e-07],"min":[-5.301063197293843e-07,52.67436981201172,-1.6548881376365898e-07],"type":"VEC3"},{"bufferView":6,"byteOffset":35944,"componentType":5126,"count":655,"max":[21.799999237060547],"min":[0.0],"type":"SCALAR"},{"bufferView":8,"byteOffset":73360,"componentType":5126,"count":655,"max":[0.45011192560195923,0.3245503306388855,0.6378251314163208,0.9995343089103699],"min":[-0.14541055262088776,-0.35413551330566406,-0.3705867826938629,0.7513324022293091],"type":"VEC4"},{"bufferView":6,"byteOffset":38564,"componentType":5126,"count":655,"max":[21.799999237060547],"min":[0.0],"type":"SCALAR"},{"bufferView":8,"byteOffset":83840,"componentType":5126,"count":655,"max":[0.5863010287284851,0.5095948576927185,0.6920337080955505,0.5232937335968018],"min":[-0.582841157913208,-0.5439126491546631,-0.5762659311294556,-0.4938887655735016],"type":"VEC4"},{"bufferView":6,"byteOffset":41184,"componentType":5126,"count":655,"max":[21.799999237060547],"min":[0.0],"type":"SCALAR"},{"bufferView":8,"byteOffset":94320,"componentType":5126,"count":655,"max":[0.06338401138782501,0.07317256182432175,0.14400053024291992,0.9979376792907715],"min":[-0.15866008400917053,-0.12429476529359818,-0.06691103428602219,0.9771901965141296],"type":"VEC4"},{"bufferView":6,"byteOffset":43804,"componentType":5126,"count":614,"max":[21.799999237060547],"min":[0.0],"type":"SCALAR"},{"bufferView":7,"byteOffset":52812,"componentType":5126,"count":614,"max":[-5.869977712791297e-07,17.93610191345215,1.2679427072725957e-06],"min":[-5.869981123396428e-07,17.93610191345215,1.2679423662120826e-06],"type":"VEC3"},{"bufferView":6,"byteOffset":46260,"componentType":5126,"count":655,"max":[21.799999237060547],"min":[0.0],"type":"SCALAR"},{"bufferView":8,"byteOffset":104800,"componentType":5126,"count":655,"max":[0.5727499127388,0.19985373318195343,0.18668168783187866,0.949749231338501],"min":[0.15674759447574615,-7.417720837565867e-08,-0.27962350845336914,0.7727651596069336],"type":"VEC4"},{"bufferView":6,"byteOffset":48880,"componentType":5126,"count":644,"max":[21.799999237060547],"min":[0.0],"type":"SCALAR"},{"bufferView":7,"byteOffset":60180,"componentType":5126,"count":644,"max":[-2.1303895891833236e-07,59.513160705566406,-1.2347825304459548e-06],"min":[-2.1303924313542666e-07,59.513160705566406,-1.2347829851933056e-06],"type":"VEC3"},{"bufferView":6,"byteOffset":51456,"componentType":5126,"count":655,"max":[21.799999237060547],"min":[0.0],"type":"SCALAR"},{"bufferView":8,"byteOffset":115280,"componentType":5126,"count":655,"max":[0.41123032569885254,0.3475223183631897,0.16839629411697388,0.940427303314209],"min":[-0.34985142946243286,0.2681059241294861,-0.2384602278470993,0.843366801738739],"type":"VEC4"},{"bufferView":6,"byteOffset":54076,"componentType":5126,"count":576,"max":[21.799999237060547],"min":[0.0],"type":"SCALAR"},{"bufferView":7,"byteOffset":67908,"componentType":5126,"count":576,"max":[6.585715937035275e-07,137.66696166992188,-2.1237510736682452e-06],"min":[6.585712526430143e-07,137.66696166992188,-2.123751528415596e-06],"type":"VEC3"},{"bufferView":6,"byteOffset":56380,"componentType":5126,"count":655,"max":[21.799999237060547],"min":[0.0],"type":"SCALAR"},{"bufferView":8,"byteOffset":125760,"componentType":5126,"count":655,"max":[0.08015342801809311,0.4267234802246094,0.1269616335630417,0.9978117942810059],"min":[-0.3888269066810608,-0.5789439678192139,-0.31363484263420105,0.8124479651451111],"type":"VEC4"},{"bufferView":6,"byteOffset":59000,"componentType":5126,"count":633,"max":[21.799999237060547],"min":[0.0],"type":"SCALAR"},{"bufferView":7,"byteOffset":74820,"componentType":5126,"count":633,"max":[-6.424670573323965e-09,141.60806274414062,-1.3521796518034535e-06],"min":[-6.424897946999408e-09,141.60806274414062,-1.3521801065508043e-06],"type":"VEC3"},{"bufferView":6,"byteOffset":61532,"componentType":5126,"count":655,"max":[21.799999237060547],"min":[0.0],"type":"SCALAR"},{"bufferView":8,"byteOffset":136240,"componentType":5126,"count":655,"max":[0.03950142487883568,0.005641526076942682,0.9091171026229858,0.9992796778678894],"min":[-0.04163036495447159,-0.0028202314861118793,-0.8626224398612976,-0.49957117438316345],"type":"VEC4"},{"bufferView":6,"byteOffset":64152,"componentType":5126,"count":637,"max":[21.799999237060547],"min":[0.0],"type":"SCALAR"},{"bufferView":7,"byteOffset":82416,"componentType":5126,"count":637,"max":[-2.3407102389683132e-07,52.67436599731445,-8.146014351950726e-08],"min":[-2.3407113758366904e-07,52.67436599731445,-8.146059826685814e-08],"type":"VEC3"},{"bufferView":6,"byteOffset":66700,"componentType":5126,"count":655,"max":[21.799999237060547],"min":[0.0],"type":"SCALAR"},{"bufferView":8,"byteOffset":146720,"componentType":5126,"count":655,"max":[0.41093751788139343,0.4161713421344757,0.4485684335231781,0.9986237287521362],"min":[-0.020255647599697113,-0.35985732078552246,-0.6471605896949768,0.7569215297698975],"type":"VEC4"},{"bufferView":6,"byteOffset":69320,"componentType":5126,"count":655,"max":[21.799999237060547],"min":[0.0],"type":"SCALAR"},{"bufferView":8,"byteOffset":157200,"componentType":5126,"count":655,"max":[0.6944964528083801,0.5221445560455322,0.6588242650032043,0.5788018107414246],"min":[-0.4877699315547943,-0.524797797203064,-0.5012103915214539,-0.4998566508293152],"type":"VEC4"},{"bufferView":6,"byteOffset":71940,"componentType":5126,"count":644,"max":[21.799999237060547],"min":[0.0],"type":"SCALAR"},{"bufferView":7,"byteOffset":90060,"componentType":5126,"count":644,"max":[5.684341886080802e-14,65.06391906738281,-3.052551846849383e-07],"min":[-5.684341886080802e-14,65.06391906738281,-3.05255298371776e-07],"type":"VEC3"},{"bufferView":6,"byteOffset":74516,"componentType":5126,"count":655,"max":[21.799999237060547],"min":[0.0],"type":"SCALAR"},{"bufferView":8,"byteOffset":167680,"componentType":5126,"count":655,"max":[0.062214918434619904,0.0364510752260685,0.10866941511631012,0.9999969005584717],"min":[-0.01409916765987873,-0.04768902808427811,-0.08170249313116074,0.993216872215271],"type":"VEC4"},{"bufferView":6,"byteOffset":77136,"componentType":5126,"count":651,"max":[21.799999237060547],"min":[0.0],"type":"SCALAR"},{"bufferView":7,"byteOffset":97788,"componentType":5126,"count":651,"max":[1.1368683772161603e-13,56.93087387084961,-2.020647116296459e-08],"min":[-1.1368683772161603e-13,56.93087387084961,-2.020658484980231e-08],"type":"VEC3"},{"bufferView":6,"byteOffset":79740,"componentType":5126,"count":655,"max":[21.799999237060547],"min":[0.0],"type":"SCALAR"},{"bufferView":8,"byteOffset":178160,"componentType":5126,"count":655,"max":[0.0621192529797554,0.03804393485188484,0.10849646478891373,0.9999969005584717],"min":[-0.016325712203979492,-0.05058024451136589,-0.08228632062673569,0.9932172298431396],"type":"VEC4"},{"bufferView":6,"byteOffset":82360,"componentType":5126,"count":605,"max":[21.799999237060547],"min":[0.0],"type":"SCALAR"},{"bufferView":7,"byteOffset":105600,"componentType":5126,"count":605,"max":[5.684341886080802e-14,48.68890380859375,-3.260500431060791],"min":[-5.684341886080802e-14,48.68890380859375,-3.260500431060791],"type":"VEC3"},{"bufferView":6,"byteOffset":84780,"componentType":5126,"count":655,"max":[21.799999237060547],"min":[0.0],"type":"SCALAR"},{"bufferView":8,"byteOffset":188640,"componentType":5126,"count":655,"max":[0.22703354060649872,0.22686758637428284,0.22287391126155853,0.9981730580329895],"min":[0.0006333549972623587,-0.2829013466835022,-0.24826444685459137,0.9203130602836609],"type":"VEC4"},{"bufferView":6,"byteOffset":87400,"componentType":5126,"count":609,"max":[21.799999237060547],"min":[0.0],"type":"SCALAR"},{"bufferView":7,"byteOffset":112860,"componentType":5126,"count":609,"max":[3.3599019388930174e-07,51.02142333984375,-1.7657805528870085e-07],"min":[3.35990080202464e-07,51.02142333984375,-1.7657814055382914e-07],"type":"VEC3"},{"bufferView":6,"byteOffset":89836,"componentType":5126,"count":655,"max":[21.799999237060547],"min":[0.0],"type":"SCALAR"},{"bufferView":8,"byteOffset":199120,"componentType":5126,"count":655,"max":[0.31960436701774597,0.0398990772664547,0.10784535109996796,0.9919620752334595],"min":[0.12346432358026505,0.0034154297318309546,0.02747824601829052,0.9405480027198792],"type":"VEC4"},{"bufferView":6,"byteOffset":92456,"componentType":5126,"count":639,"max":[21.799999237060547],"min":[0.0],"type":"SCALAR"},{"bufferView":7,"byteOffset":120168,"componentType":5126,"count":639,"max":[-2.1252194528642576e-06,267.9842529296875,-6.064914259695797e-08],"min":[-2.1252194528642576e-06,267.9842529296875,-6.064928470550512e-08],"type":"VEC3"},{"bufferView":6,"byteOffset":95012,"componentType":5126,"count":655,"max":[21.799999237060547],"min":[0.0],"type":"SCALAR"},{"bufferView":8,"byteOffset":209600,"componentType":5126,"count":655,"max":[0.7667232155799866,0.22007325291633606,0.21641619503498077,0.8990647196769714],"min":[0.40913310647010803,-0.08688266575336456,-0.2478974461555481,0.6325184106826782],"type":"VEC4"},{"bufferView":6,"byteOffset":97632,"componentType":5126,"count":453,"max":[21.799999237060547],"min":[0.0],"type":"SCALAR"},{"bufferView":7,"byteOffset":127836,"componentType":5126,"count":453,"max":[2.910610987783002e-07,262.1856689453125,6.38041228739894e-07],"min":[2.910609850914625e-07,262.1856689453125,6.380410013662186e-07],"type":"VEC3"},{"bufferView":6,"byteOffset":99444,"componentType":5126,"count":655,"max":[21.799999237060547],"min":[0.0],"type":"SCALAR"},{"bufferView":8,"byteOffset":220080,"componentType":5126,"count":655,"max":[-0.07780154049396515,0.11723935604095459,0.10922998189926147,0.9918954968452454],"min":[-0.6284377574920654,-0.10974641889333725,-0.06154569610953331,0.7753490209579468],"type":"VEC4"},{"bufferView":6,"byteOffset":102064,"componentType":5126,"count":413,"max":[21.799999237060547],"min":[0.0],"type":"SCALAR"},{"bufferView":7,"byteOffset":133272,"componentType":5126,"count":413,"max":[72.81014251708984,-27.03570556640625,-9.580241203308105],"min":[72.81014251708984,-27.03570556640625,-9.580242156982422],"type":"VEC3"},{"bufferView":6,"byteOffset":103716,"componentType":5126,"count":655,"max":[21.799999237060547],"min":[0.0],"type":"SCALAR"},{"bufferView":8,"byteOffset":230560,"componentType":5126,"count":655,"max":[0.2213500738143921,0.32322588562965393,0.9999639987945557,0.14393392205238342],"min":[-0.14938043057918549,-0.13205954432487488,0.8982197046279907,-0.2598927617073059],"type":"VEC4"},{"bufferView":6,"byteOffset":106336,"componentType":5126,"count":35,"max":[21.799999237060547],"min":[0.0],"type":"SCALAR"},{"bufferView":7,"byteOffset":138228,"componentType":5126,"count":35,"max":[7.078994599396538e-07,51.30996322631836,5.391658532971633e-07],"min":[7.07899346252816e-07,51.30996322631836,5.391658532971633e-07],"type":"VEC3"},{"bufferView":6,"byteOffset":106476,"componentType":5126,"count":655,"max":[21.799999237060547],"min":[0.0],"type":"SCALAR"},{"bufferView":8,"byteOffset":241040,"componentType":5126,"count":655,"max":[0.30487337708473206,-0.0022303310688585043,-0.031767792999744415,0.9931546449661255],"min":[0.11238180100917816,-0.03723957762122154,-0.11727139353752136,0.9444113969802856],"type":"VEC4"},{"bufferView":6,"byteOffset":109096,"componentType":5126,"count":623,"max":[21.799999237060547],"min":[0.0],"type":"SCALAR"},{"bufferView":7,"byteOffset":138648,"componentType":5126,"count":623,"max":[3.733968469532556e-06,268.22412109375,5.292099558573682e-07],"min":[3.7339682421588805e-06,268.22412109375,5.292098421705305e-07],"type":"VEC3"},{"bufferView":6,"byteOffset":111588,"componentType":5126,"count":655,"max":[21.799999237060547],"min":[0.0],"type":"SCALAR"},{"bufferView":8,"byteOffset":251520,"componentType":5126,"count":655,"max":[0.7148418426513672,0.07698332518339157,0.2540920674800873,0.909860372543335],"min":[0.40420863032341003,-0.26339539885520935,-0.3105863332748413,0.6835466027259827],"type":"VEC4"},{"bufferView":6,"byteOffset":114208,"componentType":5126,"count":620,"max":[21.799999237060547],"min":[0.0],"type":"SCALAR"},{"bufferView":7,"byteOffset":146124,"componentType":5126,"count":620,"max":[-1.7041164710462908e-06,262.04754638671875,-3.570431772459415e-08],"min":[-1.7041165847331285e-06,262.04754638671875,-3.570448825485073e-08],"type":"VEC3"},{"bufferView":6,"byteOffset":116688,"componentType":5126,"count":655,"max":[21.799999237060547],"min":[0.0],"type":"SCALAR"},{"bufferView":8,"byteOffset":262000,"componentType":5126,"count":655,"max":[-0.05889367312192917,0.1183529868721962,0.004971140529960394,0.9927427768707275],"min":[-0.5919569730758667,-0.03562907874584198,-0.13117387890815735,0.7983505725860596],"type":"VEC4"},{"bufferView":6,"byteOffset":119308,"componentType":5126,"count":444,"max":[21.799999237060547],"min":[0.0],"type":"SCALAR"},{"bufferView":7,"byteOffset":153564,"componentType":5126,"count":444,"max":[-72.81014251708984,-27.03570556640625,9.660115242004395],"min":[-72.81014251708984,-27.03570556640625,9.660114288330078],"type":"VEC3"},{"bufferView":6,"byteOffset":121084,"componentType":5126,"count":655,"max":[21.799999237060547],"min":[0.0],"type":"SCALAR"},{"bufferView":8,"byteOffset":272480,"componentType":5126,"count":655,"max":[0.1870163232088089,0.29727703332901,0.999891459941864,0.27401936054229736],"min":[-0.17558762431144714,-0.10383806377649307,0.9182562828063965,-0.23078754544258118],"type":"VEC4"},{"bufferView":6,"byteOffset":123704,"componentType":5126,"count":714,"max":[21.799999237060547],"min":[0.0],"type":"SCALAR"},{"bufferView":7,"byteOffset":158892,"componentType":5126,"count":714,"max":[137.91510009765625,621.697021484375,233.8573760986328],"min":[-105.00421905517578,520.4144287109375,-96.93804931640625],"type":"VEC3"},{"bufferView":6,"byteOffset":126560,"componentType":5126,"count":714,"max":[21.799999237060547],"min":[0.0],"type":"SCALAR"},{"bufferView":8,"byteOffset":282960,"componentType":5126,"count":714,"max":[0.06776358932256699,0.9997842907905579,0.18992842733860016,0.9998905658721924],"min":[-0.21468068659305573,-0.8568823933601379,-0.16434763371944427,-0.49471452832221985],"type":"VEC4"}],"animations":[{"channels":[{"sampler":0,"target":{"node":13,"path":"translation"}},{"sampler":1,"target":{"node":13,"path":"rotation"}},{"sampler":2,"target":{"node":12,"path":"translation"}},{"sampler":3,"target":{"node":12,"path":"rotation"}},{"sampler":4,"target":{"node":21,"path":"rotation"}},{"sampler":5,"target":{"node":20,"path":"translation"}},{"sampler":6,"target":{"node":20,"path":"rotation"}},{"sampler":7,"target":{"node":19,"path":"translation"}},{"sampler":8,"target":{"node":19,"path":"rotation"}},{"sampler":9,"target":{"node":18,"path":"translation"}},{"sampler":10,"target":{"node":18,"path":"rotation"}},{"sampler":11,"target":{"node":17,"path":"translation"}},{"sampler":12,"target":{"node":17,"path":"rotation"}},{"sampler":13,"target":{"node":16,"path":"translation"}},{"sampler":14,"target":{"node":16,"path":"rotation"}},{"sampler":15,"target":{"node":15,"path":"rotation"}},{"sampler":16,"target":{"node":29,"path":"rotation"}},{"sampler":17,"target":{"node":28,"path":"translation"}},{"sampler":18,"target":{"node":28,"path":"rotation"}},{"sampler":19,"target":{"node":27,"path":"translation"}},{"sampler":20,"target":{"node":27,"path":"rotation"}},{"sampler":21,"target":{"node":26,"path":"translation"}},{"sampler":22,"target":{"node":26,"path":"rotation"}},{"sampler":23,"target":{"node":25,"path":"translation"}},{"sampler":24,"target":{"node":25,"path":"rotation"}},{"sampler":25,"target":{"node":24,"path":"translation"}},{"sampler":26,"target":{"node":24,"path":"rotation"}},{"sampler":27,"target":{"node":23,"path":"rotation"}},{"sampler":28,"target":{"node":11,"path":"translation"}},{"sampler":29,"target":{"node":11,"path":"rotation"}},{"sampler":30,"target":{"node":10,"path":"translation"}},{"sampler":31,"target":{"node":10,"path":"rotation"}},{"sampler":32,"target":{"node":9,"path":"translation"}},{"sampler":33,"target":{"node":9,"path":"rotation"}},{"sampler":34,"target":{"node":34,"path":"translation"}},{"sampler":35,"target":{"node":34,"path":"rotation"}},{"sampler":36,"target":{"node":33,"path":"translation"}},{"sampler":37,"target":{"node":33,"path":"rotation"}},{"sampler":38,"target":{"node":32,"path":"translation"}},{"sampler":39,"target":{"node":32,"path":"rotation"}},{"sampler":40,"target":{"node":31,"path":"translation"}},{"sampler":41,"target":{"node":31,"path":"rotation"}},{"sampler":42,"target":{"node":39,"path":"translation"}},{"sampler":43,"target":{"node":39,"path":"rotation"}},{"sampler":44,"target":{"node":38,"path":"translation"}},{"sampler":45,"target":{"node":38,"path":"rotation"}},{"sampler":46,"target":{"node":37,"path":"translation"}},{"sampler":47,"target":{"node":37,"path":"rotation"}},{"sampler":48,"target":{"node":36,"path":"translation"}},{"sampler":49,"target":{"node":36,"path":"rotation"}},{"sampler":50,"target":{"node":8,"path":"translation"}},{"sampler":51,"target":{"node":8,"path":"rotation"}}],"name":"ledmkt.com","samplers":[{"input":7,"interpolation":"LINEAR","output":8},{"input":9,"interpolation":"LINEAR","output":10},{"input":11,"interpolation":"LINEAR","output":12},{"input":13,"interpolation":"LINEAR","output":14},{"input":15,"interpolation":"LINEAR","output":16},{"input":17,"interpolation":"LINEAR","output":18},{"input":19,"interpolation":"LINEAR","output":20},{"input":21,"interpolation":"LINEAR","output":22},{"input":23,"interpolation":"LINEAR","output":24},{"input":25,"interpolation":"LINEAR","output":26},{"input":27,"interpolation":"LINEAR","output":28},{"input":29,"interpolation":"LINEAR","output":30},{"input":31,"interpolation":"LINEAR","output":32},{"input":33,"interpolation":"LINEAR","output":34},{"input":35,"interpolation":"LINEAR","output":36},{"input":37,"interpolation":"LINEAR","output":38},{"input":39,"interpolation":"LINEAR","output":40},{"input":41,"interpolation":"LINEAR","output":42},{"input":43,"interpolation":"LINEAR","output":44},{"input":45,"interpolation":"LINEAR","output":46},{"input":47,"interpolation":"LINEAR","output":48},{"input":49,"interpolation":"LINEAR","output":50},{"input":51,"interpolation":"LINEAR","output":52},{"input":53,"interpolation":"LINEAR","output":54},{"input":55,"interpolation":"LINEAR","output":56},{"input":57,"interpolation":"LINEAR","output":58},{"input":59,"interpolation":"LINEAR","output":60},{"input":61,"interpolation":"LINEAR","output":62},{"input":63,"interpolation":"LINEAR","output":64},{"input":65,"interpolation":"LINEAR","output":66},{"input":67,"interpolation":"LINEAR","output":68},{"input":69,"interpolation":"LINEAR","output":70},{"input":71,"interpolation":"LINEAR","output":72},{"input":73,"interpolation":"LINEAR","output":74},{"input":75,"interpolation":"LINEAR","output":76},{"input":77,"interpolation":"LINEAR","output":78},{"input":79,"interpolation":"LINEAR","output":80},{"input":81,"interpolation":"LINEAR","output":82},{"input":83,"interpolation":"LINEAR","output":84},{"input":85,"interpolation":"LINEAR","output":86},{"input":87,"interpolation":"LINEAR","output":88},{"input":89,"interpolation":"LINEAR","output":90},{"input":91,"interpolation":"LINEAR","output":92},{"input":93,"interpolation":"LINEAR","output":94},{"input":95,"interpolation":"LINEAR","output":96},{"input":97,"interpolation":"LINEAR","output":98},{"input":99,"interpolation":"LINEAR","output":100},{"input":101,"interpolation":"LINEAR","output":102},{"input":103,"interpolation":"LINEAR","output":104},{"input":105,"interpolation":"LINEAR","output":106},{"input":107,"interpolation":"LINEAR","output":108},{"input":109,"interpolation":"LINEAR","output":110}]}],"asset":{"extras":{"author":"Walter Araujo (https://sketchfab.com/walteraraujo)","license":"CC-BY-4.0 (http://creativecommons.org/licenses/by/4.0/)","source":"https://sketchfab.com/3d-models/brazilian-woman-samba-dancing-019bc839c12342d49a5f07d75472c6c4","title":"Brazilian woman - Samba Dancing"},"generator":"Sketchfab-16.59.0","version":"2.0"},"bufferViews":[{"buffer":0,"byteLength":121344,"byteStride":8,"name":"shortBufferViews","target":34962},{"buffer":0,"byteLength":60672,"byteOffset":121344,"name":"floatBufferViews","target":34963},{"buffer":0,"byteLength":121344,"byteOffset":182016,"byteStride":8,"name":"floatBufferViews","target":34962},{"buffer":0,"byteLength":364032,"byteOffset":303360,"byteStride":12,"name":"floatBufferViews","target":34962},{"buffer":0,"byteLength":242688,"byteOffset":667392,"byteStride":16,"name":"floatBufferViews","target":34962},{"buffer":0,"byteLength":2176,"byteOffset":910080,"name":"floatBufferViews"},{"buffer":0,"byteLength":129416,"byteOffset":912256,"name":"floatBufferViews"},{"buffer":0,"byteLength":167460,"byteOffset":1041672,"byteStride":12,"name":"floatBufferViews"},{"buffer":0,"byteLength":294384,"byteOffset":1209132,"byteStride":16,"name":"floatBufferViews"}],"buffers":[{"byteLength":1503516,"uri":"scene.bin"}],"materials":[{"doubleSided":true,"name":"Dust_Storm","pbrMetallicRoughness":{"metallicFactor":0.0}}],"meshes":[{"name":"geometry_0_Dust Storm_0","primitives":[{"attributes":{"JOINTS_0":5,"NORMAL":1,"POSITION":0,"TEXCOORD_0":2,"TEXCOORD_1":2,"TEXCOORD_2":2,"TEXCOORD_3":2,"TEXCOORD_4":2,"TEXCOORD_5":2,"TEXCOORD_6":2,"TEXCOORD_7":2,"TEXCOORD_8":2,"TEXCOORD_9":2,"WEIGHTS_0":6},"indices":3,"material":0,"mode":4}]}],"nodes":[{"children":[1],"matrix":[3.1147475242614746,0.0,0.0,0.0,0.0,6.916128834658585e-16,-3.1147475242614746,0.0,0.0,3.1147475242614746,6.916128834658585e-16,0.0,0.0,0.0,0.0,1.0],"name":"Sketchfab_model"},{"children":[2],"matrix":[0.0010000000474974513,0.0,0.0,0.0,0.0,0.0,0.0010000000474974513,0.0,0.0,-0.0010000000474974513,0.0,0.0,0.0,0.0,0.0,1.0],"name":"6695f4bdecee4bcda0ceaab969f55828.fbx"},{"children":[3],"name":"Object_2"},{"children":[4],"name":"RootNode"},{"children":[5,7,6,41],"name":"Object_4"},{"children":[8],"name":"_rootJoint"},{"matrix":[1000.0000000000001,2.8421709430404004e-14,0.0,0.0,-8.051215015780114e-30,2.83276944882399e-13,1000.0,0.0,2.842170943040401e-14,-1000.0000000000002,2.8327694488239903e-13,0.0,-1.7053025658242404e-13,6.394884621840902e-14,505.38606696792465,1.0],"name":"Object_6"},{"mesh":0,"name":"Object_7","skin":0},{"children":[9,31,36],"name":"mixamorig:Hips_01","translation":[3.1296284198760986,-5.3333740234375,583.5590209960938]},{"children":[10],"name":"mixamorig:Spine_02","rotation":[-0.03342688828706741,-0.0,0.0,0.9994412660598755],"translation":[0.0,48.68890380859375,-3.260500431060791]},{"children":[11],"name":"mixamorig:Spine1_03","rotation":[1.2876578026066454e-08,0.0,0.0,1.0],"translation":[0.0,56.93087387084961,-2.0206698536640033e-08]},{"children":[12,15,23],"name":"mixamorig:Spine2_04","rotation":[6.938893903907228e-18,0.0,0.0,1.0],"translation":[0.0,65.06391906738281,-3.052551846849383e-07]},{"children":[13],"name":"mixamorig:Neck_05","rotation":[0.03342687711119652,0.0,0.0,0.9994412660598755],"translation":[0.0,73.19683837890625,-1.8090784124069614e-06]},{"children":[14],"name":"mixamorig:Head_06","translation":[0.0,50.91119384765625,16.528114318847656]},{"name":"mixamorig:HeadTop_End_07","translation":[0.0,110.4171142578125,35.84646987915039]},{"children":[16],"name":"mixamorig:LeftShoulder_08","rotation":[-0.5065765380859375,-0.477373868227005,0.5963093042373657,-0.3998872935771942],"translation":[28.33357810974121,67.0616683959961,-4.339044570922852]},{"children":[17],"name":"mixamorig:LeftArm_09","rotation":[0.08634726703166962,0.0010669408366084099,0.01230925228446722,0.9961884617805481],"translation":[-5.301062628859654e-07,52.67436981201172,-1.654885579682741e-07]},{"children":[18],"name":"mixamorig:LeftForeArm_010","rotation":[-0.054460588842630386,-0.003935279790312052,0.07196389883756638,0.9959115386009216],"translation":[-6.328150448098313e-07,142.39219665527344,-1.518640146969119e-06]},{"children":[19],"name":"mixamorig:LeftHand_011","rotation":[0.32230472564697266,0.21784235537052155,-0.07647910714149475,0.9180497527122498],"translation":[2.7177634365216363e-08,135.6822967529297,7.943564241941203e-07]},{"children":[20],"name":"mixamorig:LeftHandIndex1_012","rotation":[0.18964050710201263,-0.007994173094630241,-0.041351281106472015,0.980949878692627],"translation":[-7.640401804565045e-07,83.87821197509766,1.7661133142610197e-06]},{"children":[21],"name":"mixamorig:LeftHandIndex2_013","rotation":[3.122502256758253e-17,2.7755575615628914e-17,-2.7755575615628914e-17,1.0],"translation":[-8.483499414069229e-08,9.043994903564453,-1.2873624655185267e-07]},{"children":[22],"name":"mixamorig:LeftHandIndex3_014","rotation":[3.122502256758253e-17,-2.6000054249227684e-33,-8.326672684688674e-17,1.0],"translation":[0.11480869352817535,14.227005004882812,1.6157540082931519]},{"name":"mixamorig:LeftHandIndex4_015","rotation":[2.0816681711721685e-17,1.3877787807814457e-17,-2.7755575615628914e-17,1.0],"translation":[-3.1132850646972656,10.125429153442383,-0.9802203178405762]},{"children":[24],"name":"mixamorig:RightShoulder_016","rotation":[0.5931407809257507,-0.4024029076099396,0.5199344754219055,0.46467626094818115],"translation":[-28.33357810974121,66.53791046142578,3.4822707176208496]},{"children":[25],"name":"mixamorig:RightArm_017","rotation":[0.08174397796392441,0.00706286309286952,0.08579129725694656,0.9929290413856506],"translation":[-2.3407108074025018e-07,52.67436599731445,-8.14603708931827e-08]},{"children":[26],"name":"mixamorig:RightForeArm_018","rotation":[-0.05756256729364395,0.005609409883618355,-0.09682714939117432,0.993619441986084],"translation":[-6.424897946999408e-09,141.60806274414062,-1.352179879177129e-06]},{"children":[27],"name":"mixamorig:RightHand_019","rotation":[0.2745480239391327,-0.06706168502569199,0.019198019057512283,0.9590399265289307],"translation":[6.585714800166897e-07,137.66696166992188,-2.1237513010419207e-06]},{"children":[28],"name":"mixamorig:RightHandIndex1_020","rotation":[0.26721641421318054,0.3258115351200104,-0.09654998779296875,0.9017319679260254],"translation":[-2.1303912944858894e-07,59.513160705566406,-1.2347827578196302e-06]},{"children":[29],"name":"mixamorig:RightHandIndex2_021","rotation":[-2.7755575615628914e-17,-0.0,0.0,1.0],"translation":[-5.869977712791297e-07,17.93610191345215,1.267942593585758e-06]},{"children":[30],"name":"mixamorig:RightHandIndex3_022","rotation":[1.3877787807814457e-17,-2.7755575615628914e-17,-2.7755575615628914e-17,1.0],"translation":[-16.603118896484375,24.92098045349121,-9.312909126281738]},{"name":"mixamorig:RightHandIndex4_023","rotation":[-1.3877787807814457e-17,3.851859888774472e-34,-2.7755575615628914e-17,1.0],"translation":[-11.306644439697266,15.46880054473877,-0.4648282527923584]},{"children":[32],"name":"mixamorig:LeftUpLeg_024","rotation":[-0.0016255080699920654,-0.02006976678967476,0.9965340495109558,-0.08071215450763702],"translation":[72.81014251708984,-27.03570556640625,-9.580242156982422]},{"children":[33],"name":"mixamorig:LeftLeg_025","rotation":[0.004239531699568033,0.0002575965190771967,0.06064809858798981,0.9981502890586853],"translation":[2.9106104193488136e-07,262.1856689453125,6.380411150530563e-07]},{"children":[34],"name":"mixamorig:LeftFoot_026","rotation":[0.5165547728538513,0.13566942512989044,-0.08329808712005615,0.8413242101669312],"translation":[-2.1252194528642576e-06,267.9842529296875,-6.064919944037683e-08]},{"children":[35],"name":"mixamorig:LeftToeBase_027","rotation":[0.12351624667644501,0.003423879388719797,0.02749708853662014,0.9919556975364685],"translation":[3.359901654675923e-07,51.02142333984375,-1.7657822581895743e-07]},{"name":"mixamorig:LeftToe_End_00","rotation":[-5.150999626835073e-09,6.938893903907228e-18,-5.551115123125783e-17,1.0],"translation":[1.1587309245442157e-07,19.33011817932129,-2.5844178708211984e-07]},{"children":[37],"name":"mixamorig:RightUpLeg_028","rotation":[-0.0009386774036101997,0.011583441868424416,0.996665358543396,0.08076591044664383],"translation":[-72.81014251708984,-27.03570556640625,9.660114288330078]},{"children":[38],"name":"mixamorig:RightLeg_029","rotation":[0.015011421404778957,-0.000910386152099818,-0.06052817031741142,0.9980531930923462],"translation":[-1.7041164710462908e-06,262.04754638671875,-3.570448825485073e-08]},{"children":[39],"name":"mixamorig:RightFoot_030","rotation":[0.48358044028282166,-0.15173493325710297,0.08554047346115112,0.8577932715415955],"translation":[3.733968469532556e-06,268.22412109375,5.292098421705305e-07]},{"children":[40],"name":"mixamorig:RightToeBase_031","rotation":[0.12747722864151,-0.0049445549957454205,-0.03844176605343819,0.9910839200019836],"translation":[7.078994030962349e-07,51.30996322631836,5.391659101405821e-07]},{"name":"mixamorig:RightToe_End_032","rotation":[-3.5489033933799874e-10,-1.0408340855860843e-16,-3.6938196182820106e-26,1.0],"translation":[2.582532943051774e-08,20.426244735717773,-7.932601420179708e-08]},{"children":[42],"name":"world","rotation":[0.7071068286895752,0.0,0.0,0.7071068286895752],"scale":[1000.0,1000.0,1000.0],"translation":[0.0,0.0,505.3860778808594]},{"name":"geometry_0"}],"scene":0,"scenes":[{"name":"Sketchfab_Scene","nodes":[0]}],"skins":[{"inverseBindMatrices":4,"joints":[5,8,9,10,11,12,13,14,15,16,17,18,19,20,21,22,23,24,25,26,27,28,29,30,31,32,33,34,35,36,37,38,39,40],"skeleton":5}]}