{"accessors":[{"bufferView":3,"componentType":5126,"count":34460,"max":[32.0848274230957,68.38646697998047,6.769967079162598],"min":[-32.48954772949219,-0.6688513159751892,-13.740002632141113],"type":"VEC3"},{"bufferView":3,"byteOffset":413520,"componentType":5126,"count":34460,"max":[0.999788224697113,0.999768853187561,0.9995144605636597],"min":[-0.9998080134391785,-0.9999343156814575,-0.9999243021011353],"type":"VEC3"},{"bufferView":2,"componentType":5126,"count":34460,"max":[1.0,1.0],"min":[0.0,0.0],"type":"VEC2"},{"bufferView":1,"componentType":5125,"count":35400,"type":"SCALAR"},{"bufferView":5,"componentType":5126,"count":56,"max":[1.0000107288360596,0.9960888028144836,0.8243842124938965,0.0,0.824384331703186,1.0,0.9999859929084778,0.0,0.9960889220237732,0.9881221055984497,1.0000001192092896,0.0,42.607086181640625,38.29324722290039,50.77854537963867,1.0],"min":[-0.42955416440963745,-0.9960886240005493,-0.8243744373321533,0.0,-0.8243744969367981,-0.9946761727333069,-0.9880910515785217,0.0,-0.9960889220237732,-0.9431945085525513,-0.9947088360786438,0.0,-42.62876510620117,-61.314090728759766,-60.99386215209961,1.0],"type":"MAT4"},{"bufferView":0,"componentType":5123,"count":34460,"type":"VEC4"},{"bufferView":4,"componentType":5126,"count":34460,"max":[1.0,0.499877005815506,0.3215549886226654,0.0],"min":[0.34122300148010254,0.0,0.0,0.0],"type":"VEC4"},{"bufferView":6,"componentType":5126,"count":960,"max":[32.06666564941406],"min":[0.0],"type":"SCALAR"},{"bufferView":7,"componentType":5126,"count":960,"max":[3.552713678800501e-15,10.207181930541992,7.105427357601002e-15],"min":[-3.552713678800501e-15,10.207181930541992,-7.105427357601002e-15],"type":"VEC3"},{"bufferView":6,"byteOffset":3840,"componentType":5126,"count":963,"max":[32.06666564941406],"min":[0.0],"type":"SCALAR"},{"bufferView":8,"componentType":5126,"count":963,"max":[0.27501457929611206,0.06012409180402756,0.12152483314275742,0.9984496235847473],"min":[0.03580228611826897,-0.13970451056957245,-0.037099309265613556,0.9605507254600525],"type":"VEC4"},{"bufferView":6,"byteOffset":7692,"componentType":5126,"count":963,"max":[32.06666564941406],"min":[0.0],"type":"SCALAR"},{"bufferView":8,"byteOffset":15408,"componentType":5126,"count":963,"max":[-0.005997717380523682,-0.04058128222823143,0.047569889575242996,0.9979296922683716],"min":[-0.7499297261238098,-0.06400835514068604,-0.0018146211514249444,0.6585557460784912],"type":"VEC4"},{"bufferView":6,"byteOffset":11544,"componentType":5126,"count":963,"max":[32.06666564941406],"min":[0.0],"type":"SCALAR"},{"bufferView":8,"byteOffset":30816,"componentType":5126,"count":963,"max":[0.19181589782238007,0.047095101326704025,0.010810203850269318,0.9997587203979492],"min":[-0.606605052947998,-0.02938889153301716,-0.23063822090625763,0.7924284338951111],"type":"VEC4"},{"bufferView":6,"byteOffset":15396,"componentType":5126,"count":963,"max":[32.06666564941406],"min":[0.0],"type":"SCALAR"},{"bufferView":8,"byteOffset":46224,"componentType":5126,"count":963,"max":[0.11028826236724854,0.2769944369792938,0.11367876082658768,0.9695389866828918],"min":[-0.006947159301489592,0.2447984516620636,0.005381262395530939,0.9477276802062988],"type":"VEC4"},{"bufferView":6,"byteOffset":19248,"componentType":5126,"count":963,"max":[32.06666564941406],"min":[0.0],"type":"SCALAR"},{"bufferView":8,"byteOffset":61632,"componentType":5126,"count":963,"max":[-0.06648044288158417,-0.3828769624233246,-0.009269477799534798,0.8444293141365051],"min":[-0.3084201216697693,-0.5340602993965149,-0.4187459945678711,0.7797968983650208],"type":"VEC4"},{"bufferView":6,"byteOffset":23100,"componentType":5126,"count":963,"max":[32.06666564941406],"min":[0.0],"type":"SCALAR"},{"bufferView":8,"byteOffset":77040,"componentType":5126,"count":963,"max":[-0.004088655114173889,-0.03933016210794449,0.03808686509728432,0.9989262223243713],"min":[-0.7666398882865906,-0.04602658748626709,0.015043686144053936,0.6397388577461243],"type":"VEC4"},{"bufferView":6,"byteOffset":26952,"componentType":5126,"count":963,"max":[32.06666564941406],"min":[0.0],"type":"SCALAR"},{"bufferView":8,"byteOffset":92448,"componentType":5126,"count":963,"max":[0.10177713632583618,-0.02796447090804577,-0.005313335917890072,0.9983880519866943],"min":[-0.6521095633506775,-0.06278381496667862,-0.2379017323255539,0.7545508742332458],"type":"VEC4"},{"bufferView":6,"byteOffset":30804,"componentType":5126,"count":963,"max":[32.06666564941406],"min":[0.0],"type":"SCALAR"},{"bufferView":8,"byteOffset":107856,"componentType":5126,"count":963,"max":[-0.0224915761500597,-0.0629507526755333,0.11409855633974075,0.9958805441856384],"min":[-0.7643131613731384,-0.08716356009244919,0.013685381971299648,0.6315410137176514],"type":"VEC4"},{"bufferView":6,"byteOffset":34656,"componentType":5126,"count":963,"max":[32.06666564941406],"min":[0.0],"type":"SCALAR"},{"bufferView":8,"byteOffset":123264,"componentType":5126,"count":963,"max":[0.09638648480176926,-0.06881560385227203,0.023253541439771652,0.9963335990905762],"min":[-0.728107213973999,-0.08835095167160034,-0.20433126389980316,0.6798070073127747],"type":"VEC4"},{"bufferView":6,"byteOffset":38508,"componentType":5126,"count":963,"max":[32.06666564941406],"min":[0.0],"type":"SCALAR"},{"bufferView":8,"byteOffset":138672,"componentType":5126,"count":963,"max":[-0.09962490946054459,-0.03902729973196983,0.02716323733329773,0.9936556816101074],"min":[-0.8539496064186096,-0.050089552998542786,0.019079498946666718,0.5181910395622253],"type":"VEC4"},{"bufferView":6,"byteOffset":42360,"componentType":5126,"count":963,"max":[32.06666564941406],"min":[0.0],"type":"SCALAR"},{"bufferView":8,"byteOffset":154080,"componentType":5126,"count":963,"max":[0.0923038125038147,-0.07770857959985733,0.15877090394496918,0.9922067523002625],"min":[-0.7378023266792297,-0.1889004111289978,-0.16058668494224548,0.6463732719421387],"type":"VEC4"},{"bufferView":6,"byteOffset":46212,"componentType":5126,"count":921,"max":[32.06666564941406],"min":[0.0],"type":"SCALAR"},{"bufferView":7,"byteOffset":11520,"componentType":5126,"count":921,"max":[1.4210854715202004e-14,9.17813491821289,-2.1457672119140625e-06],"min":[-1.4210854715202004e-14,9.17813491821289,-2.1457672119140625e-06],"type":"VEC3"},{"bufferView":6,"byteOffset":49896,"componentType":5126,"count":963,"max":[32.06666564941406],"min":[0.0],"type":"SCALAR"},{"bufferView":8,"byteOffset":169488,"componentType":5126,"count":963,"max":[0.4932006597518921,0.5663627982139587,0.25870415568351746,0.9999415278434753],"min":[-0.19140563905239105,-0.20238728821277618,-0.5123668313026428,0.6996475458145142],"type":"VEC4"},{"bufferView":6,"byteOffset":53748,"componentType":5126,"count":963,"max":[32.06666564941406],"min":[0.0],"type":"SCALAR"},{"bufferView":8,"byteOffset":184896,"componentType":5126,"count":963,"max":[0.09432551264762878,0.03262166306376457,0.9396126866340637,0.9644020795822144],"min":[-0.08646546304225922,-0.01686098799109459,-0.8613163828849792,-0.49846088886260986],"type":"VEC4"},{"bufferView":6,"byteOffset":57600,"componentType":5126,"count":778,"max":[32.06666564941406],"min":[0.0],"type":"SCALAR"},{"bufferView":7,"byteOffset":22572,"componentType":5126,"count":778,"max":[-5.960463056453591e-08,5.269787311553955,1.1920930376163597e-07],"min":[-5.960465898624534e-08,5.269787311553955,1.1920927533992653e-07],"type":"VEC3"},{"bufferView":6,"byteOffset":60712,"componentType":5126,"count":963,"max":[32.06666564941406],"min":[0.0],"type":"SCALAR"},{"bufferView":8,"byteOffset":200304,"componentType":5126,"count":963,"max":[0.2523767352104187,0.6317773461341858,0.24123547971248627,0.9865890145301819],"min":[-0.5889453291893005,-0.38458648324012756,-0.49293971061706543,0.6173343062400818],"type":"VEC4"},{"bufferView":6,"byteOffset":64564,"componentType":5126,"count":963,"max":[32.06666564941406],"min":[0.0],"type":"SCALAR"},{"bufferView":8,"byteOffset":215712,"componentType":5126,"count":963,"max":[0.6559411287307739,0.4450070858001709,0.5978325009346008,0.6827443838119507],"min":[-0.6942403316497803,-0.44563207030296326,-0.5706100463867188,-0.49982863664627075],"type":"VEC4"},{"bufferView":6,"byteOffset":68416,"componentType":5126,"count":963,"max":[32.06666564941406],"min":[0.0],"type":"SCALAR"},{"bufferView":8,"byteOffset":231120,"componentType":5126,"count":963,"max":[0.02110288292169571,0.06406529992818832,0.0035926352720707655,0.9979444146156311],"min":[-0.6372511982917786,0.0476132407784462,-0.02575770393013954,0.7687525153160095],"type":"VEC4"},{"bufferView":6,"byteOffset":72268,"componentType":5126,"count":963,"max":[32.06666564941406],"min":[0.0],"type":"SCALAR"},{"bufferView":8,"byteOffset":246528,"componentType":5126,"count":963,"max":[0.19594931602478027,0.06119348481297493,0.2115199714899063,0.9982326626777649],"min":[-0.5028923153877258,-0.04723452404141426,0.010991429910063744,0.8626775145530701],"type":"VEC4"},{"bufferView":6,"byteOffset":76120,"componentType":5126,"count":963,"max":[32.06666564941406],"min":[0.0],"type":"SCALAR"},{"bufferView":8,"byteOffset":261936,"componentType":5126,"count":963,"max":[0.08055788278579712,-0.2510213255882263,-0.0010243654251098633,0.9679785370826721],"min":[-0.002119837561622262,-0.2756003737449646,-0.08371736109256744,0.9544035196304321],"type":"VEC4"},{"bufferView":6,"byteOffset":79972,"componentType":5126,"count":963,"max":[32.06666564941406],"min":[0.0],"type":"SCALAR"},{"bufferView":8,"byteOffset":277344,"componentType":5126,"count":963,"max":[0.01878875494003296,0.5481785535812378,0.2868131101131439,0.8479230999946594],"min":[-0.3172115087509155,0.45905381441116333,-0.0576634481549263,0.7891184687614441],"type":"VEC4"},{"bufferView":6,"byteOffset":83824,"componentType":5126,"count":963,"max":[32.06666564941406],"min":[0.0],"type":"SCALAR"},{"bufferView":8,"byteOffset":292752,"componentType":5126,"count":963,"max":[0.018954571336507797,0.045870017260313034,-0.014159288257360458,0.9989405274391174],"min":[-0.5745871663093567,0.0432572141289711,-0.020936517044901848,0.8169955015182495],"type":"VEC4"},{"bufferView":6,"byteOffset":87676,"componentType":5126,"count":963,"max":[32.06666564941406],"min":[0.0],"type":"SCALAR"},{"bufferView":8,"byteOffset":308160,"componentType":5126,"count":963,"max":[0.12764282524585724,0.0983523279428482,0.16236422955989838,0.998415470123291],"min":[-0.5748897194862366,0.05143215134739876,-0.011773984879255295,0.8102028965950012],"type":"VEC4"},{"bufferView":6,"byteOffset":91528,"componentType":5126,"count":963,"max":[32.06666564941406],"min":[0.0],"type":"SCALAR"},{"bufferView":8,"byteOffset":323568,"componentType":5126,"count":963,"max":[-0.030279194936156273,0.08719702064990997,-0.014114108867943287,0.9956604242324829],"min":[-0.6834485530853271,0.06992386281490326,-0.08827845007181168,0.7212597727775574],"type":"VEC4"},{"bufferView":6,"byteOffset":95380,"componentType":5126,"count":963,"max":[32.06666564941406],"min":[0.0],"type":"SCALAR"},{"bufferView":8,"byteOffset":338976,"componentType":5126,"count":963,"max":[0.027984516695141792,0.1379660815000534,0.10398180037736893,0.9937318563461304],"min":[-0.6268482804298401,0.07084473967552185,-0.11933334171772003,0.759746253490448],"type":"VEC4"},{"bufferView":6,"byteOffset":99232,"componentType":5126,"count":963,"max":[32.06666564941406],"min":[0.0],"type":"SCALAR"},{"bufferView":8,"byteOffset":354384,"componentType":5126,"count":963,"max":[-0.012782022356987,0.04998166114091873,-0.010802644304931164,0.9986581802368164],"min":[-0.7577269077301025,0.04338947683572769,-0.016710378229618073,0.6510381102561951],"type":"VEC4"},{"bufferView":6,"byteOffset":103084,"componentType":5126,"count":963,"max":[32.06666564941406],"min":[0.0],"type":"SCALAR"},{"bufferView":8,"byteOffset":369792,"componentType":5126,"count":963,"max":[0.009690173901617527,0.231770858168602,0.1413796991109848,0.972801685333252],"min":[-0.617969810962677,0.15593403577804565,-0.20149816572666168,0.7408232688903809],"type":"VEC4"},{"bufferView":6,"byteOffset":106936,"componentType":5126,"count":14,"max":[32.06666564941406],"min":[0.0],"type":"SCALAR"},{"bufferView":7,"byteOffset":31908,"componentType":5126,"count":14,"max":[2.384185791015625e-07,9.178133964538574,1.8775463104248047e-06],"min":[2.3841856489070778e-07,9.178133964538574,1.8775463104248047e-06],"type":"VEC3"},{"bufferView":6,"byteOffset":106992,"componentType":5126,"count":963,"max":[32.06666564941406],"min":[0.0],"type":"SCALAR"},{"bufferView":8,"byteOffset":385200,"componentType":5126,"count":963,"max":[0.3803609609603882,0.012162728235125542,0.5099186301231384,0.9869037866592407],"min":[-0.30148983001708984,-0.6946462392807007,-0.25962918996810913,0.6413042545318604],"type":"VEC4"},{"bufferView":6,"byteOffset":110844,"componentType":5126,"count":963,"max":[32.06666564941406],"min":[0.0],"type":"SCALAR"},{"bufferView":8,"byteOffset":400608,"componentType":5126,"count":963,"max":[-0.03170270100235939,-0.010231024585664272,0.9483429193496704,0.9477525353431702],"min":[-0.09520149230957031,-0.03205936402082443,0.315804123878479,0.30245277285575867],"type":"VEC4"},{"bufferView":6,"byteOffset":114696,"componentType":5126,"count":963,"max":[32.06666564941406],"min":[0.0],"type":"SCALAR"},{"bufferView":8,"byteOffset":416016,"componentType":5126,"count":963,"max":[0.006337993778288364,0.36928290128707886,0.6803372502326965,0.972878098487854],"min":[-0.5424231886863708,-0.5714213848114014,-0.12033691257238388,0.5761659145355225],"type":"VEC4"},{"bufferView":6,"byteOffset":118548,"componentType":5126,"count":963,"max":[32.06666564941406],"min":[0.0],"type":"SCALAR"},{"bufferView":8,"byteOffset":431424,"componentType":5126,"count":963,"max":[0.6601905226707458,0.4285118579864502,0.7464066743850708,0.6222744584083557],"min":[-0.7061505317687988,-0.39791274070739746,-0.6306048035621643,-0.4998752474784851],"type":"VEC4"},{"bufferView":6,"byteOffset":122400,"componentType":5126,"count":901,"max":[32.06666564941406],"min":[0.0],"type":"SCALAR"},{"bufferView":7,"byteOffset":32076,"componentType":5126,"count":901,"max":[2.6645352591003757e-15,5.717400074005127,2.0265579223632812e-05],"min":[-3.552713678800501e-15,5.717400074005127,2.0265579223632812e-05],"type":"VEC3"},{"bufferView":6,"byteOffset":126004,"componentType":5126,"count":963,"max":[32.06666564941406],"min":[0.0],"type":"SCALAR"},{"bufferView":8,"byteOffset":446832,"componentType":5126,"count":963,"max":[0.26311129331588745,0.07471120357513428,0.133757546544075,0.9999648928642273],"min":[-0.20242710411548615,-0.11794201284646988,-0.11792256683111191,0.9642297625541687],"type":"VEC4"},{"bufferView":6,"byteOffset":129856,"componentType":5126,"count":902,"max":[32.06666564941406],"min":[0.0],"type":"SCALAR"},{"bufferView":7,"byteOffset":42888,"componentType":5126,"count":902,"max":[3.552713678800501e-15,4.016822814941406,-0.1726229190826416],"min":[-3.552713678800501e-15,4.016822814941406,-0.1726229190826416],"type":"VEC3"},{"bufferView":6,"byteOffset":133464,"componentType":5126,"count":963,"max":[32.06666564941406],"min":[0.0],"type":"SCALAR"},{"bufferView":8,"byteOffset":462240,"componentType":5126,"count":963,"max":[0.2545337975025177,0.037803832441568375,0.07001835107803345,0.9992335438728333],"min":[0.022186728194355965,-0.0577300488948822,-0.06082693114876747,0.9669227600097656],"type":"VEC4"},{"bufferView":6,"byteOffset":137316,"componentType":5126,"count":963,"max":[32.06666564941406],"min":[0.0],"type":"SCALAR"},{"bufferView":8,"byteOffset":477648,"componentType":5126,"count":963,"max":[-0.5087108612060547,0.09247133135795593,0.3156117796897888,0.8466610908508301],"min":[-0.817411482334137,-0.24421606957912445,-0.029200995340943336,0.5479991436004639],"type":"VEC4"},{"bufferView":6,"byteOffset":141168,"componentType":5126,"count":963,"max":[32.06666564941406],"min":[0.0],"type":"SCALAR"},{"bufferView":8,"byteOffset":493056,"componentType":5126,"count":963,"max":[0.6978960633277893,0.12402775883674622,0.05589815974235535,0.9861536026000977],"min":[0.14264486730098724,-0.059548694640398026,-0.14452162384986877,0.7109550833702087],"type":"VEC4"},{"bufferView":6,"byteOffset":145020,"componentType":5126,"count":940,"max":[32.06666564941406],"min":[0.0],"type":"SCALAR"},{"bufferView":7,"byteOffset":53712,"componentType":5126,"count":940,"max":[4.931056976318359,1.4210854715202004e-14,3.552713678800501e-15],"min":[4.931056976318359,-1.4210854715202004e-14,-3.552713678800501e-15],"type":"VEC3"},{"bufferView":6,"byteOffset":148780,"componentType":5126,"count":963,"max":[32.06666564941406],"min":[0.0],"type":"SCALAR"},{"bufferView":8,"byteOffset":508464,"componentType":5126,"count":963,"max":[0.9912415742874146,0.4671156406402588,0.01218333188444376,0.6150686144828796],"min":[0.6040828824043274,-0.012425537221133709,-0.31597328186035156,-0.07500135898590088],"type":"VEC4"},{"bufferView":6,"byteOffset":152632,"componentType":5126,"count":963,"max":[32.06666564941406],"min":[0.0],"type":"SCALAR"},{"bufferView":8,"byteOffset":523872,"componentType":5126,"count":963,"max":[-0.4273304343223572,0.1553145796060562,0.057073261588811874,0.8898482322692871],"min":[-0.7960698008537292,-0.2542318105697632,-0.31217390298843384,0.5750136375427246],"type":"VEC4"},{"bufferView":6,"byteOffset":156484,"componentType":5126,"count":963,"max":[32.06666564941406],"min":[0.0],"type":"SCALAR"},{"bufferView":8,"byteOffset":539280,"componentType":5126,"count":963,"max":[0.7492137551307678,0.0613836869597435,0.13885053992271423,0.9823398590087891],"min":[0.1627141386270523,-0.11640671640634537,-0.08273448050022125,0.6547401547431946],"type":"VEC4"},{"bufferView":6,"byteOffset":160336,"componentType":5126,"count":937,"max":[32.06666564941406],"min":[0.0],"type":"SCALAR"},{"bufferView":7,"byteOffset":64992,"componentType":5126,"count":937,"max":[-4.931056976318359,1.4210854715202004e-14,3.552713678800501e-15],"min":[-4.931056976318359,-1.4210854715202004e-14,-3.552713678800501e-15],"type":"VEC3"},{"bufferView":6,"byteOffset":164084,"componentType":5126,"count":963,"max":[32.06666564941406],"min":[0.0],"type":"SCALAR"},{"bufferView":8,"byteOffset":554688,"componentType":5126,"count":963,"max":[0.9993928670883179,0.15612390637397766,0.17287299036979675,0.6095812916755676],"min":[0.7273512482643127,-0.3663995563983917,-0.047289811074733734,-0.06994719803333282],"type":"VEC4"},{"bufferView":6,"byteOffset":167936,"componentType":5126,"count":963,"max":[32.06666564941406],"min":[0.0],"type":"SCALAR"},{"bufferView":7,"byteOffset":76236,"componentType":5126,"count":963,"max":[12.458523750305176,1.170257568359375,16.586368560791016],"min":[-18.173078536987305,-16.261144638061523,-22.987154006958008],"type":"VEC3"},{"bufferView":6,"byteOffset":171788,"componentType":5126,"count":963,"max":[32.06666564941406],"min":[0.0],"type":"SCALAR"},{"bufferView":8,"byteOffset":570096,"componentType":5126,"count":963,"max":[-0.4673744738101959,0.19291171431541443,0.16219188272953033,0.8837893605232239],"min":[-0.821772038936615,-0.3290005028247833,-0.4101257026195526,0.5483753681182861],"type":"VEC4"}],"animations":[{"channels":[{"sampler":0,"target":{"node":10,"path":"translation"}},{"sampler":1,"target":{"node":10,"path":"rotation"}},{"sampler":2,"target":{"node":17,"path":"rotation"}},{"sampler":3,"target":{"node":16,"path":"rotation"}},{"sampler":4,"target":{"node":20,"path":"rotation"}},{"sampler":5,"target":{"node":19,"path":"rotation"}},{"sampler":6,"target":{"node":23,"path":"rotation"}},{"sampler":7,"target":{"node":22,"path":"rotation"}},{"sampler":8,"target":{"node":26,"path":"rotation"}},{"sampler":9,"target":{"node":25,"path":"rotation"}},{"sampler":10,"target":{"node":29,"path":"rotation"}},{"sampler":11,"target":{"node":28,"path":"rotation"}},{"sampler":12,"target":{"node":15,"path":"translation"}},{"sampler":13,"target":{"node":15,"path":"rotation"}},{"sampler":14,"target":{"node":14,"path":"rotation"}},{"sampler":15,"target":{"node":13,"path":"translation"}},{"sampler":16,"target":{"node":13,"path":"rotation"}},{"sampler":17,"target":{"node":12,"path":"rotation"}},{"sampler":18,"target":{"node":36,"path":"rotation"}},{"sampler":19,"target":{"node":35,"path":"rotation"}},{"sampler":20,"target":{"node":39,"path":"rotation"}},{"sampler":21,"target":{"node":38,"path":"rotation"}},{"sampler":22,"target":{"node":42,"path":"rotation"}},{"sampler":23,"target":{"node":41,"path":"rotation"}},{"sampler":24,"target":{"node":45,"path":"rotation"}},{"sampler":25,"target":{"node":44,"path":"rotation"}},{"sampler":26,"target":{"node":48,"path":"rotation"}},{"sampler":27,"target":{"node":47,"path":"rotation"}},{"sampler":28,"target":{"node":34,"path":"translation"}},{"sampler":29,"target":{"node":34,"path":"rotation"}},{"sampler":30,"target":{"node":33,"path":"rotation"}},{"sampler":31,"target":{"node":32,"path":"rotation"}},{"sampler":32,"target":{"node":31,"path":"rotation"}},{"sampler":33,"target":{"node":9,"path":"translation"}},{"sampler":34,"target":{"node":9,"path":"rotation"}},{"sampler":35,"target":{"node":8,"path":"translation"}},{"sampler":36,"target":{"node":8,"path":"rotation"}},{"sampler":37,"target":{"node":54,"path":"rotation"}},{"sampler":38,"target":{"node":53,"path":"rotation"}},{"sampler":39,"target":{"node":52,"path":"translation"}},{"sampler":40,"target":{"node":52,"path":"rotation"}},{"sampler":41,"target":{"node":58,"path":"rotation"}},{"sampler":42,"target":{"node":57,"path":"rotation"}},{"sampler":43,"target":{"node":56,"path":"translation"}},{"sampler":44,"target":{"node":56,"path":"rotation"}},{"sampler":45,"target":{"node":4,"path":"translation"}},{"sampler":46,"target":{"node":4,"path":"rotation"}}],"name":"mixamo.com","samplers":[{"input":7,"interpolation":"LINEAR","output":8},{"input":9,"interpolation":"LINEAR","output":10},{"input":11,"interpolation":"LINEAR","output":12},{"input":13,"interpolation":"LINEAR","output":14},{"input":15,"interpolation":"LINEAR","output":16},{"input":17,"interpolation":"LINEAR","output":18},{"input":19,"interpolation":"LINEAR","output":20},{"input":21,"interpolation":"LINEAR","output":22},{"input":23,"interpolation":"LINEAR","output":24},{"input":25,"interpolation":"LINEAR","output":26},{"input":27,"interpolation":"LINEAR","output":28},{"input":29,"interpolation":"LINEAR","output":30},{"input":31,"interpolation":"LINEAR","output":32},{"input":33,"interpolation":"LINEAR","output":34},{"input":35,"interpolation":"LINEAR","output":36},{"input":37,"interpolation":"LINEAR","output":38},{"input":39,"interpolation":"LINEAR","output":40},{"input":41,"interpolation":"LINEAR","output":42},{"input":43,"interpolation":"LINEAR","output":44},{"input":45,"interpolation":"LINEAR","output":46},{"input":47,"interpolation":"LINEAR","output":48},{"input":49,"interpolation":"LINEAR","output":50},{"input":51,"interpolation":"LINEAR","output":52},{"input":53,"interpolation":"LINEAR","output":54},{"input":55,"interpolation":"LINEAR","output":56},{"input":57,"interpolation":"LINEAR","output":58},{"input":59,"interpolation":"LINEAR","output":60},{"input":61,"interpolation":"LINEAR","output":62},{"input":63,"interpolation":"LINEAR","output":64},{"input":65,"interpolation":"LINEAR","output":66},{"input":67,"interpolation":"LINEAR","output":68},{"input":69,"interpolation":"LINEAR","output":70},{"input":71,"interpolation":"LINEAR","output":72},{"input":73,"interpolation":"LINEAR","output":74},{"input":75,"interpolation":"LINEAR","output":76},{"input":77,"interpolation":"LINEAR","output":78},{"input":79,"interpolation":"LINEAR","output":80},{"input":81,"interpolation":"LINEAR","output":82},{"input":83,"interpolation":"LINEAR","output":84},{"input":85,"interpolation":"LINEAR","output":86},{"input":87,"interpolation":"LINEAR","output":88},{"input":89,"interpolation":"LINEAR","output":90},{"input":91,"interpolation":"LINEAR","output":92},{"input":93,"interpolation":"LINEAR","output":94},{"input":95,"interpolation":"LINEAR","output":96},{"input":97,"interpolation":"LINEAR","output":98},{"input":99,"interpolation":"LINEAR","output":100}]}],"asset":{"extras":{"author":"0M3GA_SU9 (https://sketchfab.com/prestond23)","license":"CC-BY-4.0 (http://creativecommons.org/licenses/by/4.0/)","source":"https://sketchfab.com/3d-models/dancing-twerk-75f876667a5546a79e94ab7526b1fc0e","title":"Dancing Twerk"},"generator":"Sketchfab-12.67.0","version":"2.0"},"bufferViews":[{"buffer":0,"byteLength":275680,"byteStride":8,"name":"shortBufferViews","target":34962},{"buffer":0,"byteLength":141600,"byteOffset":275680,"name":"floatBufferViews","target":34963},{"buffer":0,"byteLength":275680,"byteOffset":417280,"byteStride":8,"name":"floatBufferViews","target":34962},{"buffer":0,"byteLength":827040,"byteOffset":692960,"byteStride":12,"name":"floatBufferViews","target":34962},{"buffer":0,"byteLength":551360,"byteOffset":1520000,"byteStride":16,"name":"floatBufferViews","target":34962},{"buffer":0,"byteLength":3584,"byteOffset":2071360,"name":"floatBufferViews"},{"buffer":0,"byteLength":175640,"byteOffset":2074944,"name":"floatBufferViews"},{"buffer":0,"byteLength":87792,"byteOffset":2250584,"byteStride":12,"name":"floatBufferViews"},{"buffer":0,"byteLength":585504,"byteOffset":2338376,"byteStride":16,"name":"floatBufferViews"}],"buffers":[{"byteLength":2923880,"uri":"scene.bin"}],"extensionsRequired":["KHR_materials_pbrSpecularGlossiness"],"extensionsUsed":["KHR_materials_pbrSpecularGlossiness"],"materials":[{"doubleSided":true,"extensions":{"KHR_materials_pbrSpecularGlossiness":{"diffuseFactor":[0.0014581825438351416,0.0569430250170938,0.0025159890908950638,1.0],"glossinessFactor":1.0,"specularFactor":[0.0,0.0,0.0]}},"name":"body"}],"meshes":[{"name":"Body_body_0","primitives":[{"attributes":{"JOINTS_0":5,"NORMAL":1,"POSITION":0,"TEXCOORD_0":2,"WEIGHTS_0":6},"indices":3,"material":0,"mode":4}]}],"nodes":[{"children":[1],"matrix":[0.1191302165389061,0.0,0.0,0.0,0.0,2.6452221866014835e-17,-0.1191302165389061,0.0,0.0,0.1191302165389061,2.6452221866014835e-17,0.0,0.0,5.052268079452915e-06,8.88179541528995e-16,1.0],"name":"Sketchfab_model"},{"children":[2],"matrix":[1.0,0.0,0.0,0.0,0.0,0.0,1.0,0.0,0.0,-1.0,0.0,0.0,0.0,0.0,0.0,1.0],"name":"9112ca5b76364f6dacf0fbc7167e02ed.fbx"},{"children":[3],"name":"Object_2"},{"children":[4,64],"name":"RootNode"},{"children":[5],"name":"Armature","rotation":[-0.7071068286895752,0.0,0.0,0.7071067094802856]},{"children":[6,63,62],"name":"Object_5"},{"children":[7],"name":"_rootJoint"},{"children":[8,52,56,60,61],"name":"Hips_01","rotation":[0.7071068286895752,0.0,0.0,0.7071067094802856],"translation":[0.0,3.744457244873047,38.54987716674805]},{"children":[9],"name":"Spine_02","rotation":[0.05290410667657852,0.0,0.0,0.9985995888710022],"translation":[0.0,4.016822814941406,-0.1726229190826416]},{"children":[10,12,31,50,51],"name":"Chest_03","rotation":[-0.14219854772090912,-0.0,0.0,0.989838182926178],"scale":[1.0,0.9999999403953552,0.9999999403953552],"translation":[0.0,5.717400074005127,2.0265579223632812e-05]},{"children":[11],"name":"Neck_04","rotation":[0.20257090032100677,0.0,0.0,0.9792675971984863],"scale":[1.0,0.9999999403953552,0.9999999403953552],"translation":[0.0,10.207181930541992,8.881784197001252e-16]},{"name":"Head_00","rotation":[-0.1139809787273407,-0.0,0.0,0.9934829473495483],"translation":[0.0,3.0993573665618896,-4.76837158203125e-07]},{"children":[13],"name":"Left shoulder_05","rotation":[-0.5118028521537781,-0.4320906698703766,-0.5175544619560242,0.5324406623840332],"scale":[1.0000001192092896,1.0000001192092896,0.9999999403953552],"translation":[0.6659820079803467,10.145223617553711,0.01392221450805664]},{"children":[14],"name":"Left arm_06","rotation":[-0.029913557693362236,-0.026963453739881516,-0.005874457769095898,0.9991714954376221],"scale":[1.0,1.0,0.9999999403953552],"translation":[-5.960464477539063e-08,5.269787311553955,1.1920928955078125e-07]},{"children":[15],"name":"Left elbow_07","rotation":[0.020470820367336273,0.033570364117622375,-0.11627235263586044,0.992438793182373],"scale":[1.0,0.9999999403953552,1.0],"translation":[3.5762786865234375e-07,10.248078346252441,2.9802322387695312e-06]},{"children":[16,19,22,25,28],"name":"Left wrist_08","rotation":[0.10734240710735321,0.12405367940664291,0.020642613992094994,0.9862363934516907],"scale":[1.0,0.9999999403953552,1.0],"translation":[0.0,9.17813491821289,-2.1457672119140625e-06]},{"children":[17],"name":"IndexFinger1_L_09","rotation":[-0.049493465572595596,-0.06065615266561508,-0.030084278434515,0.9964768886566162],"scale":[1.0,0.9999998807907104,0.9999999403953552],"translation":[1.0366017818450928,3.927140712738037,-0.17794838547706604]},{"children":[18],"name":"IndexFinger2_L_010","rotation":[-0.05410105735063553,-0.06401984393596649,0.011552681215107441,0.9964141249656677],"scale":[1.0,1.0000001192092896,0.9999999403953552],"translation":[0.003734111785888672,0.8280491232872009,0.035309091210365295]},{"name":"IndexFinger3_L_011","rotation":[-0.003576708724722266,-0.007945191115140915,0.04815273359417915,0.9988020062446594],"scale":[1.0000001192092896,1.0000001192092896,1.0],"translation":[-3.337860107421875e-06,1.0149383544921875,-6.0498714447021484e-05]},{"children":[20],"name":"Thumb0_L_012","rotation":[-0.4206598103046417,-0.5039796829223633,-0.18696026504039764,0.730818510055542],"scale":[1.0000001192092896,1.000000238418579,0.9999999403953552],"translation":[1.562633991241455,1.2262667417526245,-0.5191552639007568]},{"children":[21],"name":"Thumb1_L_013","rotation":[0.17133550345897675,0.26541629433631897,0.034970734268426895,0.9481431245803833],"scale":[1.0,1.0,1.0000001192092896],"translation":[-3.7789344787597656e-05,1.5011626482009888,-3.159046173095703e-05]},{"name":"Thumb2_L_014","rotation":[0.043391674757003784,0.07740727066993713,-0.008937018923461437,0.9960147738456726],"scale":[1.0,1.0000001192092896,1.0000001192092896],"translation":[-3.063678741455078e-05,1.2027403116226196,-4.5746564865112305e-05]},{"children":[23],"name":"MiddleFinger1_L_015","rotation":[-0.04953907057642937,-0.057256024330854416,-0.009553821757435799,0.9970839023590088],"scale":[1.0,0.9999999403953552,0.9999999403953552],"translation":[0.17032790184020996,4.133752346038818,-0.2632368206977844]},{"children":[24],"name":"MiddleFinger2_L_016","rotation":[-0.03889526426792145,-0.04399345815181732,0.01027020812034607,0.9982215762138367],"scale":[1.0,1.0000001192092896,1.0000001192092896],"translation":[-0.02905416488647461,0.969297468662262,0.03778548538684845]},{"name":"MiddleFinger3_L_017","rotation":[0.03327220678329468,0.0367252416908741,0.017229218035936356,0.9986228346824646],"scale":[1.0,1.0000001192092896,0.9999998807907104],"translation":[3.4570693969726562e-06,1.1539428234100342,1.989305019378662e-06]},{"children":[26],"name":"RingFinger1_L_018","rotation":[-0.07431230694055557,-0.08616286516189575,-0.015964966267347336,0.9933774471282959],"scale":[0.9999999403953552,0.9999999403953552,1.0],"translation":[-0.7543380260467529,4.213222503662109,-0.3384552001953125]},{"children":[27],"name":"RingFinger2_L_019","rotation":[-0.07500211894512177,-0.08709745109081268,0.016356665641069412,0.9932377338409424],"scale":[0.9999999403953552,1.0,0.9999999403953552],"translation":[-0.017058908939361572,0.8114736676216125,-0.0029425788670778275]},{"name":"RingFinger3_L_020","rotation":[0.06404001265764236,0.07002368569374084,0.010426893830299377,0.9954330921173096],"scale":[1.0,0.9999999403953552,1.0],"translation":[-9.775161743164062e-06,1.143580675125122,-3.141164779663086e-05]},{"children":[29],"name":"LittleFinger1_L_021","rotation":[-0.04060214385390282,-0.04749682545661926,-0.011220121756196022,0.9979828000068665],"scale":[1.0,0.9999999403953552,0.9999998807907104],"translation":[-1.4455890655517578,3.644345283508301,-0.7672210335731506]},{"children":[30],"name":"LittleFinger2_L_022","rotation":[-0.042661402374506,-0.04777650162577629,0.016830919310450554,0.9978046417236328],"scale":[0.9999998807907104,1.0,1.0],"translation":[-0.023322582244873047,0.6669763326644897,0.020536452531814575]},{"name":"LittleFinger3_L_023","rotation":[-0.08322235196828842,-0.09308186173439026,0.02763889729976654,0.9917893409729004],"scale":[0.9999999403953552,1.0000001192092896,1.0],"translation":[-8.463859558105469e-06,0.8124328255653381,-1.9647181034088135e-05]},{"children":[32],"name":"Right shoulder_024","rotation":[-0.5118009448051453,0.4320901036262512,0.5175541639328003,0.5324430465698242],"scale":[0.9999998807907104,0.9999997615814209,0.9999999403953552],"translation":[-0.6659820079803467,10.145223617553711,0.01392221450805664]},{"children":[33],"name":"Right arm_025","rotation":[-0.02991662733256817,0.026966258883476257,0.00587476696819067,0.9991713166236877],"scale":[0.9999999403953552,0.9999999403953552,0.9999998807907104],"translation":[5.364418029785156e-07,5.269792556762695,-2.2649765014648438e-06]},{"children":[34],"name":"Right elbow_026","rotation":[0.02047184482216835,-0.033570919185876846,0.11626916378736496,0.9924392104148865],"scale":[1.0,1.0000001192092896,0.9999998807907104],"translation":[-4.76837158203125e-07,10.248099327087402,-1.0728836059570312e-06]},{"children":[35,38,41,44,47],"name":"Right wrist_027","rotation":[0.10735740512609482,-0.12407020479440689,-0.02064664289355278,0.986232578754425],"scale":[1.0,1.0,0.9999999403953552],"translation":[2.384185791015625e-07,9.178133964538574,1.8775463104248047e-06]},{"children":[36],"name":"IndexFinger1_R_028","rotation":[-0.04948434233665466,0.060646943747997284,0.030089961364865303,0.9964777231216431],"scale":[0.9999999403953552,1.0,0.9999998807907104],"translation":[-0.9883120059967041,4.391655445098877,-0.2559441924095154]},{"children":[37],"name":"IndexFinger2_R_029","rotation":[-0.054111141711473465,0.06403098255395889,-0.01155077014118433,0.9964128732681274],"scale":[1.0,1.0,0.9999999403953552],"translation":[-0.003718137741088867,0.8280328512191772,0.03534020483493805]},{"name":"IndexFinger3_R_030","rotation":[-0.0035613845102488995,0.00792610552161932,-0.04815221205353737,0.9988023042678833],"scale":[1.0000001192092896,1.0,0.9999998807907104],"translation":[-2.384185791015625e-06,1.0149290561676025,-1.4036893844604492e-05]},{"children":[39],"name":"Thumb0_R_031","rotation":[-0.4206603467464447,0.5039808750152588,0.18697279691696167,0.7308141589164734],"scale":[1.0,1.0000001192092896,1.0],"translation":[-1.5143461227416992,1.6907715797424316,-0.5971678495407104]},{"children":[40],"name":"Thumb1_R_032","rotation":[0.17133620381355286,-0.2654109597206116,-0.03497881814837456,0.9481441974639893],"scale":[1.0,1.0000001192092896,1.0],"translation":[2.5153160095214844e-05,1.5011708736419678,1.2993812561035156e-05]},{"name":"Thumb2_R_033","rotation":[0.043392110615968704,-0.07740581035614014,0.008935154415667057,0.9960148930549622],"scale":[1.0000001192092896,1.0,1.0],"translation":[1.7642974853515625e-05,1.2027595043182373,4.172325134277344e-06]},{"children":[42],"name":"MiddleFinger1_R_034","rotation":[-0.04953319579362869,0.057249147444963455,0.009555524215102196,0.9970846176147461],"scale":[1.0,1.0000001192092896,0.9999999403953552],"translation":[-0.12204289436340332,4.598268508911133,-0.3412790298461914]},{"children":[43],"name":"MiddleFinger2_R_035","rotation":[-0.0388786755502224,0.043973688036203384,-0.010267915204167366,0.9982231855392456],"scale":[1.0,0.9999999403953552,0.9999999403953552],"translation":[0.029062747955322266,0.9692999124526978,0.03781907260417938]},{"name":"MiddleFinger3_R_036","rotation":[0.033246275037527084,-0.036697521805763245,-0.017229679971933365,0.9986246228218079],"scale":[1.0,1.0,0.9999999403953552],"translation":[-5.245208740234375e-06,1.1539320945739746,-4.172325134277344e-05]},{"children":[45],"name":"RingFinger1_R_037","rotation":[-0.0742982029914856,0.08614722639322281,0.015970980748534203,0.9933797717094421],"scale":[0.9999998807907104,0.9999998807907104,1.0],"translation":[0.8026163578033447,4.677734851837158,-0.4165240526199341]},{"children":[46],"name":"RingFinger2_R_038","rotation":[-0.0750252977013588,0.08712311834096909,-0.01635594666004181,0.9932337403297424],"scale":[1.0,1.0,0.9999999403953552],"translation":[0.01706598699092865,0.8114719986915588,-0.0029017962515354156]},{"name":"RingFinger3_R_039","rotation":[0.06405667960643768,-0.0700422152876854,-0.010428513400256634,0.9954307079315186],"scale":[1.0,1.0000001192092896,1.0],"translation":[-5.7220458984375e-06,1.1435832977294922,1.239776611328125e-05]},{"children":[48],"name":"LittleFinger1_R_040","rotation":[-0.04058866202831268,0.0474812313914299,0.011220124550163746,0.9979841709136963],"scale":[1.0,1.0,0.9999998807907104],"translation":[1.493861436843872,4.108858585357666,-0.8453138470649719]},{"children":[49],"name":"LittleFinger2_R_041","rotation":[-0.042667996138334274,0.04778257757425308,-0.016828665509819984,0.9978041052818298],"scale":[1.0,0.9999999403953552,1.0],"translation":[0.02332448959350586,0.6669817566871643,0.020526915788650513]},{"name":"LittleFinger3_R_042","rotation":[-0.0832238420844078,0.0930807888507843,-0.02763049490749836,0.9917894601821899],"scale":[1.0,1.0,0.9999999403953552],"translation":[-5.960464477539062e-07,0.8124428987503052,-3.542006015777588e-05]},{"name":"BreastL_043","rotation":[0.8456375002861023,0.0,0.0,0.5337576866149902],"scale":[1.0,0.9999999403953552,0.9999998211860657],"translation":[4.221889972686768,3.223998785018921,5.047541618347168]},{"name":"BreastR_044","rotation":[0.8456375002861023,0.0,0.0,0.5337576866149902],"scale":[1.0,1.0,1.000000238418579],"translation":[-4.222125053405762,3.223989486694336,5.04752779006958]},{"children":[53],"name":"Left leg_045","rotation":[0.9983186721801758,-0.02640078403055668,-0.02661721594631672,-0.04421056807041168],"scale":[0.9999871850013733,0.9999996423721313,0.9999688267707825],"translation":[4.931056976318359,0.0,0.0]},{"children":[54],"name":"Left knee_046","rotation":[0.02495870552957058,0.01660439930856228,-0.0195358544588089,0.999359667301178],"scale":[0.9999999403953552,1.0000001192092896,1.0],"translation":[-5.662441253662109e-07,17.842361450195312,-1.6391277313232422e-07]},{"children":[55],"name":"Left ankle_047","rotation":[-0.589875340461731,0.011726711876690388,-0.0026699097361415625,0.8074047565460205],"scale":[0.9999999403953552,1.0,1.0],"translation":[1.8998980522155762e-07,18.241348266601562,-5.550682544708252e-07]},{"name":"Left toe_048","rotation":[-0.1458938866853714,0.0001263596786884591,-2.9197317417128943e-05,0.9893002510070801],"translation":[1.2443260857253335e-05,6.158138751983643,-1.0976669727824628e-05]},{"children":[57],"name":"Right leg_049","rotation":[0.9983186721801758,0.02640078403055668,0.02661721594631672,-0.04421056807041168],"scale":[0.9999871850013733,0.9999996423721313,0.9999688267707825],"translation":[-4.931056976318359,0.0,0.0]},{"children":[58],"name":"Right knee_050","rotation":[0.02495870552957058,-0.01660439930856228,0.0195358544588089,0.999359667301178],"scale":[0.9999999403953552,1.0000001192092896,1.0],"translation":[5.662441253662109e-07,17.842361450195312,-1.6391277313232422e-07]},{"children":[59],"name":"Right ankle_051","rotation":[-0.589875340461731,-0.011726711876690388,0.0026699097361415625,0.8074047565460205],"scale":[0.9999999403953552,1.0,1.0],"translation":[-1.8998980522155762e-07,18.241348266601562,-5.550682544708252e-07]},{"name":"Right toe_052","rotation":[-0.1458938866853714,-0.0001263596786884591,2.9197317417128943e-05,0.9893002510070801],"translation":[-1.2443260857253335e-05,6.158138751983643,-1.0976669727824628e-05]},{"name":"ButtL_053","rotation":[-0.8161620497703552,0.0,0.0,0.5778231024742126],"translation":[4.68795919418335,1.854949951171875,-4.794500350952148]},{"name":"ButtR_054","rotation":[-0.8161620497703552,0.0,0.0,0.5778231024742126],"translation":[-4.688175201416016,1.854949951171875,-4.794500350952148]},{"matrix":[1.0,0.0,0.0,0.0,0.0,6.123233995736766e-17,-1.0,0.0,0.0,1.0,6.123233995736766e-17,0.0,0.0,0.0,0.0,1.0],"name":"Object_62"},{"mesh":0,"name":"Object_63","skin":0},{"name":"Body","rotation":[-0.7071068286895752,0.0,0.0,0.7071067094802856]}],"scene":0,"scenes":[{"name":"Sketchfab_Scene","nodes":[0]}],"skins":[{"inverseBindMatrices":4,"joints":[6,7,8,9,10,11,12,13,14,15,16,17,18,19,20,21,22,23,24,25,26,27,28,29,30,31,32,33,34,35,36,37,38,39,40,41,42,43,44,45,46,47,48,49,50,51,52,53,54,55,56,57,58,59,60,61],"skeleton":6}]}